<?xml version="1.0" encoding="UTF-8"?>
<svg version="1.1" xmlns="http://www.w3.org/2000/svg" width="512" height="512">
<path d="M0 0 C5.40765903 1.22628288 10.70091799 2.78849687 16.01171875 4.37109375 C17.62332683 4.84160893 19.23525429 5.31103137 20.84747314 5.77944946 C25.21746149 7.0522699 29.58301739 8.33972131 33.94797897 9.62965775 C38.56954329 10.99248537 43.19520714 12.34124853 47.82055664 13.69116211 C55.60033107 15.96325017 63.37794405 18.24259808 71.15429688 20.52636719 C82.69607516 23.91500515 94.24522259 27.27800873 105.796875 30.6328125 C106.72226263 30.90158581 107.64765026 31.17035912 108.60107994 31.44727707 C112.30621772 32.52336094 116.01138536 33.59934182 119.71662426 34.67507744 C126.07181072 36.52024768 132.42635505 38.36761552 138.78051758 40.21630859 C166.17498979 48.18607226 193.58093638 56.11520266 221 64 C220.99111755 63.25719788 220.98223511 62.51439575 220.9730835 61.74908447 C220.89290256 54.74550095 220.83201814 47.74207665 220.79275131 40.73816299 C220.77188487 37.13741714 220.74358579 33.53705084 220.69824219 29.93652344 C220.65474875 26.46112087 220.63085579 22.98608312 220.62049103 19.51042938 C220.60951385 17.54054216 220.578293 15.57080153 220.54681396 13.60113525 C220.54651184 12.40019226 220.54620972 11.19924927 220.54589844 9.96191406 C220.53701599 8.90490295 220.52813354 7.84789185 220.51898193 6.7588501 C221.12635325 3.27530858 222.20537485 2.10972423 225 0 C233.97301849 -1.33914961 242.74848206 2.21642127 251.265625 4.765625 C252.99047596 5.27211557 254.7156533 5.77749579 256.44113159 6.28184509 C260.12384183 7.36071926 263.80423883 8.44703798 267.48297119 9.53939819 C273.31702493 11.27169139 279.15587338 12.98740139 284.99560547 14.70043945 C291.94271943 16.73939431 298.88875328 18.78194368 305.8332653 20.82974339 C320.8791086 25.26606889 335.94219926 29.64147541 351.01138306 33.9977417 C355.12107858 35.18599 359.22993094 36.37713513 363.33862305 37.56884766 C377.10055369 41.55980913 390.8656212 45.5396805 404.6348877 49.50526428 C410.84962197 51.29517543 417.06363867 53.08757222 423.27751541 54.88045788 C428.41016157 56.36109633 433.54379288 57.83825395 438.67818737 59.31281757 C441.84509407 60.2231957 445.01106577 61.13679168 448.17679024 62.05127144 C449.65130886 62.47648188 451.12622069 62.9003314 452.60154533 63.32273674 C454.62351899 63.90184248 456.64405239 64.48572977 458.66430664 65.07080078 C459.7974379 65.3968631 460.93056915 65.72292542 462.09803772 66.05886841 C466.44170316 67.46755687 468.42298001 68.13447001 471 72 C471.25415033 74.93806589 471.25415033 74.93806589 471.26006222 78.61774254 C471.26386789 79.29674394 471.26767356 79.97574533 471.27159455 80.67532253 C471.28196076 82.96716732 471.277995 85.25876675 471.27415466 87.55062866 C471.27860434 89.20370178 471.28391749 90.85677277 471.29002339 92.50984061 C471.30424615 97.06545693 471.30586587 101.62100516 471.30542648 106.17664051 C471.30707091 111.08471917 471.32013034 115.99276947 471.33161926 120.90083313 C471.35449664 131.63825165 471.36239267 142.37565045 471.36744571 153.11309004 C471.37069927 159.81370432 471.37721963 166.51431283 471.3844471 173.21492386 C471.40401586 191.75629937 471.4204187 210.29766951 471.42332363 228.83905602 C471.4235112 230.02620495 471.42369877 231.21335389 471.42389202 232.43647704 C471.42425828 234.84325544 471.42462198 237.25003384 471.42498314 239.65681224 C471.42516595 240.85158764 471.42534876 242.04636304 471.42553711 243.27734375 C471.42580793 245.07168645 471.42580793 245.07168645 471.42608423 246.9022785 C471.42962754 266.29510586 471.45665855 285.68782228 471.494035 305.08061115 C471.53207591 324.97686458 471.55148079 344.87306289 471.55178314 364.76935351 C471.55236863 375.94611792 471.56091953 387.12274999 471.58978081 398.29948044 C471.61423825 407.81474586 471.62161576 417.32983067 471.60653328 426.84511898 C471.59934146 431.70248058 471.60031921 436.55948513 471.62294388 441.41680717 C471.64344486 445.860645 471.64101737 450.30384926 471.62006903 454.74767955 C471.61655704 456.35803625 471.62155602 457.96843786 471.63577347 459.57873563 C471.65382433 461.76345728 471.64122846 463.94592365 471.62082577 466.13057518 C471.62164022 467.34519318 471.62245468 468.55981118 471.62329382 469.81123579 C470.79176994 474.06530265 469.51637625 475.49463119 466 478 C463.13168768 478.49190931 460.8586649 478.67412993 457.99609375 478.6292057 C456.7892532 478.64010651 456.7892532 478.64010651 455.55803204 478.65122753 C452.85071615 478.6695362 450.14480654 478.65209549 447.4375 478.63491821 C445.48158542 478.64067709 443.52567625 478.64861663 441.56977844 478.65855443 C436.18623575 478.67948299 430.80313456 478.6690852 425.41959 478.65362334 C419.6171795 478.64233836 413.81484642 478.65975836 408.01245117 478.67352295 C396.64208574 478.69579037 385.27188506 478.69093852 373.9015131 478.67645974 C364.66300666 478.6651813 355.4245465 478.66363056 346.18603516 478.66907883 C344.21593491 478.67022807 344.21593491 478.67022807 342.20603466 478.67140054 C340.20695533 478.67259837 338.20787599 478.67379626 336.20879668 478.675035 C311.21981056 478.69033502 286.23091441 478.67645477 261.24194217 478.64955051 C239.03364241 478.62582189 216.825486 478.62794501 194.6171875 478.65185547 C169.6743398 478.67862021 144.73157161 478.68925001 119.78871155 478.67379415 C117.13046266 478.67220136 114.47221376 478.6706295 111.81396484 478.66907883 C110.50595508 478.66830745 109.19794531 478.66753607 107.85029888 478.66674132 C98.61974352 478.66241887 89.38923891 478.66972262 80.15869141 478.68147659 C68.91421601 478.69547991 57.66991519 478.69174725 46.42545986 478.66507287 C40.68510259 478.65190559 34.9450367 478.646832 29.2046814 478.66331863 C23.95414803 478.67817074 18.70417731 478.67010827 13.4536953 478.64343087 C11.55000556 478.63782576 9.6462687 478.6407315 7.74260902 478.65280981 C5.16235766 478.66793056 2.58405445 478.65251093 0.00390625 478.6292057 C-0.74198918 478.64091153 -1.48788462 478.65261737 -2.25638294 478.66467792 C-5.9519539 478.59757612 -7.89798502 478.07041213 -10.96109337 475.95621294 C-13.50354914 472.26990356 -13.69670364 469.39823436 -13.62641239 465.07138729 C-13.6368638 463.87676015 -13.6368638 463.87676015 -13.64752635 462.65799913 C-13.66482762 459.97837692 -13.64637566 457.30018959 -13.62818909 454.62059021 C-13.63323216 452.68458764 -13.64045914 450.74858973 -13.64968723 448.81260258 C-13.66867015 443.48412759 -13.65634167 438.1561096 -13.6389643 432.8276459 C-13.62562564 427.08456567 -13.64101475 421.34155386 -13.65278625 415.59848022 C-13.67119302 404.34475032 -13.66263038 393.09119371 -13.64469803 381.83746915 C-13.63068946 372.69430251 -13.62677548 363.55118301 -13.6301403 354.40800667 C-13.63061775 353.10819459 -13.63109519 351.80838251 -13.6315871 350.46918218 C-13.6326134 347.82889976 -13.63366875 345.18861736 -13.63475286 342.54833496 C-13.64358515 318.48068415 -13.62490841 294.41312303 -13.59422263 270.34549389 C-13.56635805 248.36546887 -13.56139954 226.38555447 -13.57641602 204.40551758 C-13.58023832 198.77683995 -13.58403308 193.14816232 -13.5875864 187.51948452 C-13.58824312 186.4801115 -13.58824312 186.4801115 -13.58891311 185.41974104 C-13.60014731 167.06297618 -13.59273543 148.70622056 -13.57970566 130.34945828 C-13.5778612 127.71903138 -13.57602648 125.08860448 -13.57420158 122.45817757 C-13.57328949 121.16384764 -13.5723774 119.86951771 -13.57143768 118.53596566 C-13.56582346 109.39962787 -13.56914766 100.26331802 -13.57574654 91.12698174 C-13.58346468 79.99887594 -13.57678191 68.87088918 -13.5515715 57.74280744 C-13.53904155 52.06134508 -13.53297221 46.38006839 -13.54411316 40.69859886 C-13.55410911 35.50307947 -13.54579553 30.30793137 -13.52253198 25.1124574 C-13.51734659 23.22762845 -13.51898106 21.34276657 -13.52792663 19.45795172 C-13.53903685 16.90577396 -13.52578378 14.35487042 -13.50615788 11.80277157 C-13.51523669 11.06227085 -13.52431551 10.32177013 -13.53366944 9.55882999 C-13.48262856 6.17949162 -13.22222132 4.30353628 -11.20269436 1.54502636 C-7.58391946 -0.99327524 -4.18603096 -0.59896635 0 0 Z M237 19 C237 49.36 237 79.72 237 111 C250.69951172 111.05607422 250.69951172 111.05607422 264.67578125 111.11328125 C270.44988517 111.14354489 276.22396875 111.17455945 281.99804688 111.20898438 C291.16982204 111.26352575 300.34154063 111.3149359 309.51342773 111.34643555 C316.19255652 111.36938824 322.87153755 111.40275541 329.55054921 111.44870156 C333.0880311 111.47267091 336.62536634 111.49137522 340.16292763 111.49761391 C344.10918899 111.50476829 348.05508218 111.53517088 352.0012207 111.56762695 C353.76635765 111.56547432 353.76635765 111.56547432 355.56715393 111.5632782 C357.17623627 111.58208542 357.17623627 111.58208542 358.81782532 111.60127258 C359.75160161 111.60588155 360.6853779 111.61049051 361.64745045 111.61523914 C364.44501765 112.0727829 365.31080932 112.76474017 367 115 C368.02093454 117.9842702 368.09707796 119.62051343 367.3125 122.6875 C365.75663225 125.4287908 364.89454017 125.8743925 362 127 C359.55563736 127.26171303 359.55563736 127.26171303 356.77349854 127.2784729 C355.71623062 127.28963638 354.65896271 127.30079987 353.56965637 127.31230164 C352.41519516 127.31446182 351.26073395 127.31662201 350.07128906 127.31884766 C348.24161842 127.33391609 348.24161842 127.33391609 346.37498474 127.34928894 C343.03438195 127.37487803 339.69394893 127.39173484 336.3532877 127.40471697 C332.86053702 127.42035245 329.36787235 127.44714133 325.87518311 127.4727478 C319.26318758 127.51952824 312.65117586 127.55627587 306.03909945 127.58942068 C298.51068085 127.62764728 290.98234863 127.67705602 283.45400286 127.72740483 C267.96939137 127.83071378 252.48474397 127.91850135 237 128 C237 135.59 237 143.18 237 151 C240.73014404 151.01981934 244.46028809 151.03963867 248.3034668 151.06005859 C260.61694541 151.12691419 272.93033719 151.20445472 285.24371624 151.28752708 C292.71055238 151.33764053 300.1773776 151.38408358 307.64428711 151.421875 C314.15274136 151.45482482 320.66111064 151.49467254 327.16947109 151.54279006 C330.6153287 151.56802538 334.06113017 151.58981536 337.50705528 151.60334396 C341.3546593 151.61857883 345.20205713 151.64921429 349.04956055 151.68115234 C350.76183334 151.68439262 350.76183334 151.68439262 352.50869751 151.68769836 C353.55892593 151.69886185 354.60915436 151.71002533 355.69120789 151.7215271 C356.60101756 151.72705786 357.51082724 151.73258862 358.4482069 151.73828697 C361.33273788 152.03412574 363.43381008 152.64803002 366 154 C367.60812761 157.70568536 368.27848338 159.93248038 367.25 163.875 C366 166 366 166 364 167 C362.3151249 167.10479182 360.62617036 167.1465649 358.93807983 167.15821838 C357.86673294 167.1680072 356.79538605 167.17779602 355.6915741 167.18788147 C354.51122086 167.19363693 353.33086761 167.1993924 352.11474609 167.20532227 C350.87575058 167.21522186 349.63675507 167.22512146 348.36021423 167.23532104 C344.95755372 167.2615444 341.55491711 167.28339171 338.15221739 167.30332303 C334.59808526 167.32516629 331.04399614 167.35256308 327.48989868 167.37937927 C320.75741341 167.42932865 314.0249043 167.47425913 307.29237235 167.51740164 C299.62859823 167.56675485 291.96486724 167.62168007 284.30113482 167.67708123 C268.53412819 167.79093574 252.76708206 167.89703157 237 168 C237 175.92 237 183.84 237 192 C240.7959668 192.01458252 244.59193359 192.02916504 248.50292969 192.04418945 C261.02798159 192.09446815 273.55290377 192.16090018 286.07783127 192.23571491 C293.6736182 192.28069038 301.26935806 192.32010094 308.86523438 192.34643555 C315.4854097 192.36940153 322.10543628 192.4027837 328.72549367 192.44870156 C332.23114945 192.4726529 335.73665774 192.49136905 339.24239349 192.49761391 C343.15492426 192.50477848 347.06708515 192.53519687 350.97949219 192.56762695 C352.72521011 192.56547432 352.72521011 192.56547432 354.50619507 192.5632782 C355.57187714 192.57581635 356.6375592 192.58835449 357.73553467 192.60127258 C358.66101482 192.60588155 359.58649498 192.61049051 360.54001999 192.61523914 C363.49019185 193.07666999 364.8550778 193.94783819 367 196 C368.19308162 199.65878362 368.32667744 201.29997692 366.6875 204.8125 C365 207 365 207 363 208 C361.32779452 208.1047375 359.65148549 208.14656024 357.9760437 208.15821838 C356.91311096 208.1680072 355.85017822 208.17779602 354.7550354 208.18788147 C353.5840329 208.19363693 352.4130304 208.1993924 351.20654297 208.20532227 C349.97730103 208.21522186 348.74805908 208.22512146 347.48156738 208.23532104 C344.10576555 208.26154395 340.72998782 208.28339145 337.35414648 208.30332303 C333.82804137 208.32516664 330.30197959 208.35256326 326.77590942 208.37937927 C320.09654829 208.42932818 313.41716313 208.47425883 306.73775494 208.51740164 C299.13443894 208.56675525 291.53116641 208.62168032 283.92789245 208.67708123 C268.28530023 208.79093502 252.64266823 208.89703108 237 209 C237 216.92 237 224.84 237 233 C240.83149658 233.01458252 244.66299316 233.02916504 248.6105957 233.04418945 C261.24741288 233.09444939 273.88410121 233.16087759 286.52079487 233.23571491 C294.18499185 233.28070685 301.84914202 233.32011356 309.51342773 233.34643555 C316.19255652 233.36938824 322.87153755 233.40275541 329.55054921 233.44870156 C333.0880311 233.47267091 336.62536634 233.49137522 340.16292763 233.49761391 C344.10918899 233.50476829 348.05508218 233.53517088 352.0012207 233.56762695 C353.76635765 233.56547432 353.76635765 233.56547432 355.56715393 233.5632782 C356.63987549 233.57581635 357.71259705 233.58835449 358.81782532 233.60127258 C359.75160161 233.60588155 360.6853779 233.61049051 361.64745045 233.61523914 C364.44501765 234.0727829 365.31080932 234.76474017 367 237 C368.03152764 240.01523464 368.1105941 241.60370446 367.25 244.6875 C366 247 366 247 363 249 C360.66306782 249.26171303 360.66306782 249.26171303 357.85578918 249.2784729 C356.25932808 249.29521812 356.25932808 249.29521812 354.63061523 249.31230164 C353.46320801 249.31446182 352.29580078 249.31662201 351.09301758 249.31884766 C349.86362961 249.32889328 348.63424164 249.3389389 347.36759949 249.34928894 C343.99594697 249.37490637 340.62446322 249.39174593 337.25275254 249.40471697 C333.72929977 249.42033608 330.2059326 249.44713016 326.68254089 249.4727478 C320.01030472 249.51955727 313.33805249 249.55629084 306.6657359 249.58942068 C299.06962744 249.62762679 291.4736049 249.67704088 283.87756884 249.72740483 C268.25176835 249.83075694 252.62593222 249.91852696 237 250 C237 257.92 237 265.84 237 274 C240.83149658 274.01458252 244.66299316 274.02916504 248.6105957 274.04418945 C261.24741288 274.09444939 273.88410121 274.16087759 286.52079487 274.23571491 C294.18499185 274.28070685 301.84914202 274.32011356 309.51342773 274.34643555 C316.19255652 274.36938824 322.87153755 274.40275541 329.55054921 274.44870156 C333.0880311 274.47267091 336.62536634 274.49137522 340.16292763 274.49761391 C344.10918899 274.50476829 348.05508218 274.53517088 352.0012207 274.56762695 C353.76635765 274.56547432 353.76635765 274.56547432 355.56715393 274.5632782 C356.63987549 274.57581635 357.71259705 274.58835449 358.81782532 274.60127258 C359.75160161 274.60588155 360.6853779 274.61049051 361.64745045 274.61523914 C364.44501765 275.0727829 365.31080932 275.76474017 367 278 C368.01047626 280.95369983 368.08410369 282.63835414 367.375 285.6875 C365.59895078 288.67449187 364.27177574 288.95994566 361 290 C358.4482069 290.26171303 358.4482069 290.26171303 355.69120789 290.2784729 C354.11586525 290.29521812 354.11586525 290.29521812 352.50869751 290.31230164 C350.79642471 290.31554192 350.79642471 290.31554192 349.04956055 290.31884766 C347.83938766 290.32889328 346.62921478 290.3389389 345.38237 290.34928894 C342.07281693 290.37484923 338.76343465 290.39172353 335.45382285 290.40471697 C331.99177427 290.42036915 328.5298121 290.44715269 325.06782532 290.4727478 C318.51607044 290.51949871 311.96429923 290.55626062 305.41246301 290.58942068 C297.95173425 290.62766817 290.49109236 290.67707143 283.03043687 290.72740483 C267.68701441 290.83066985 252.34355572 290.91847524 237 291 C237 298.59 237 306.18 237 314 C242.64065552 314.02187378 242.64065552 314.02187378 248.39526367 314.04418945 C260.80855031 314.09448726 273.22170633 314.16092316 285.63486767 314.23571491 C293.16224454 314.28067363 300.68957409 314.32008807 308.21704102 314.34643555 C314.77826289 314.36941508 321.33933502 314.40281246 327.90043813 314.44870156 C331.37426779 314.47263459 334.84794914 314.49136276 338.32185936 314.49761391 C342.20065955 314.50478889 346.07908812 314.53522327 349.95776367 314.56762695 C351.10862961 314.56619186 352.25949554 314.56475677 353.44523621 314.5632782 C354.50387878 314.57581635 355.56252136 314.58835449 356.65324402 314.60127258 C357.57042804 314.60588155 358.48761206 314.61049051 359.43258953 314.61523914 C362.57291944 315.08585965 364.46365421 316.10987049 367 318 C368.20528867 321.9602342 368.05206284 325.02554039 367 329 C363.99197222 330.00267593 361.96282714 330.13648589 358.81782532 330.15821838 C357.7473335 330.16799241 356.67684168 330.17776644 355.57391071 330.18783665 C354.39492301 330.1936069 353.21593531 330.19937716 352.0012207 330.20532227 C350.11240693 330.22037135 350.11240693 330.22037135 348.1854353 330.23572445 C344.77739365 330.26195041 341.36937661 330.2839533 337.96129608 330.30391693 C334.76400728 330.32353455 331.56676162 330.34844547 328.36950684 330.3729248 C319.01720871 330.44144033 309.66484984 330.50144961 300.3125 330.5625 C279.419375 330.706875 258.52625 330.85125 237 331 C237 373.9 237 416.8 237 461 C257.79 461 278.58 461 300 461 C300.02578125 454.76609375 300.0515625 448.5321875 300.078125 442.109375 C300.10328819 438.16271911 300.12961695 434.21614025 300.16015625 430.26953125 C300.20853025 424.00374037 300.25255998 417.73812777 300.27099609 411.47216797 C300.28612774 406.42100213 300.32051105 401.37030225 300.36830902 396.31934357 C300.38315891 394.39125872 300.39104308 392.46310736 300.39188385 390.53496552 C300.39424443 387.83628013 300.42124988 385.13889202 300.45410156 382.44042969 C300.44655602 381.24172997 300.44655602 381.24172997 300.43885803 380.01881409 C300.50213301 376.66455331 300.76515282 374.37973517 302.54498291 371.50184631 C305.93562881 369.42763303 308.97061508 369.46299126 312.82617188 369.5300293 C313.61037003 369.5278389 314.39456818 369.5256485 315.20252991 369.52339172 C317.79170069 369.52108244 320.37973102 369.54732679 322.96875 369.57421875 C324.76948689 369.57914321 326.5702289 369.58244173 328.37097168 369.58418274 C332.14380254 369.59182202 335.91625395 369.61237955 339.68896484 369.64331055 C344.52449685 369.68288518 349.35978198 369.70091991 354.19545746 369.71061993 C358.80742173 369.72059703 363.41932586 369.74047975 368.03125 369.76171875 C368.91143295 369.7651145 369.79161591 369.76851025 370.69847107 369.7720089 C373.1903293 369.78359495 375.6820325 369.80211802 378.17382812 369.82299805 C378.91057266 369.82568695 379.6473172 369.82837585 380.40638733 369.83114624 C383.7414479 369.8661743 386.81040748 369.96780204 390 371 C391.14194829 375.11446156 391.17439231 379.10432899 391.20532227 383.34863281 C391.21522186 384.18802399 391.22512146 385.02741516 391.23532104 385.89224243 C391.26686998 388.66250808 391.29166735 391.43279086 391.31640625 394.203125 C391.33698148 396.12555381 391.3579781 398.04797816 391.37937927 399.97039795 C391.43454116 405.02722555 391.48397639 410.08409357 391.53222656 415.14099121 C391.59132275 421.21002622 391.65751835 427.27898742 391.72252655 433.34796143 C391.82046205 442.5652625 391.90936877 451.78261117 392 461 C412.46 461 432.92 461 454 461 C454 335.93 454 210.86 454 82 C436.41326896 76.72398069 418.83371682 71.45779573 401.1940918 66.36645508 C399.84930789 65.97810066 398.50453073 65.58972285 397.15975952 65.20132446 C396.47961666 65.00493504 395.7994738 64.80854561 395.09872055 64.60620499 C389.15086986 62.88819792 383.20407181 61.16654679 377.25711632 59.44544411 C375.67713715 58.98820266 374.09714157 58.5310179 372.5171299 58.07388878 C360.13686141 54.49189394 347.76045618 50.89674845 335.38622665 47.29394913 C332.51038283 46.4566423 329.63448576 45.6195186 326.75857544 44.78244019 C311.29926797 40.2825512 311.29926797 40.2825512 304.23071289 38.22192383 C299.82275073 36.93691488 295.41437684 35.65332693 291.00574684 34.37061119 C289.40691795 33.90514827 287.80823015 33.43920026 286.20972252 32.97263527 C269.83930299 28.19494207 253.41797645 23.61755588 237 19 Z M4 20 C4 50.03 4 80.06 4 111 C17.59123047 111.07347656 17.59123047 111.07347656 31.45703125 111.1484375 C37.91368318 111.18830451 44.37031773 111.2294163 50.82694912 111.27233124 C59.19816847 111.32780535 67.56937262 111.38030925 75.94067383 111.421875 C82.56703556 111.45478602 89.19331319 111.49461222 95.81958216 111.54279006 C99.32909235 111.568064 102.83854669 111.58984255 106.34812355 111.60334396 C110.26318961 111.61853473 114.1780509 111.64916221 118.09301758 111.68115234 C119.84412842 111.68439262 119.84412842 111.68439262 121.63061523 111.68769836 C123.22707634 111.70444359 123.22707634 111.70444359 124.85578918 111.7215271 C125.78219113 111.72705786 126.70859308 111.73258862 127.66306782 111.73828697 C130 112 130 112 133 114 C134.55991041 120.90817469 134.55991041 120.90817469 132.75 124.4375 C129.71295283 127.14914926 126.82285248 127.13067748 122.93171692 127.15821838 C121.88423782 127.1680072 120.83675873 127.17779602 119.75753784 127.18788147 C118.60883209 127.19363693 117.46012634 127.1993924 116.27661133 127.20532227 C115.0667305 127.21522186 113.85684967 127.22512146 112.61030579 127.23532104 C109.29241269 127.26151452 105.97454373 127.2833742 102.65661073 127.30332303 C99.18923494 127.32518984 95.72190288 127.35257513 92.25456238 127.37937927 C85.68856588 127.42929676 79.12254509 127.47423909 72.55650109 127.51740164 C65.08133331 127.56678208 57.60620942 127.62169722 50.13108408 127.67708123 C34.75409505 127.79088679 19.37706578 127.89699827 4 128 C4 135.59 4 143.18 4 151 C7.73014404 151.01458252 11.46028809 151.02916504 15.3034668 151.04418945 C27.61696927 151.09448801 39.93034007 151.16092407 52.24371624 151.23571491 C59.71055884 151.28067297 67.17735374 151.32008756 74.64428711 151.34643555 C81.15277198 151.36941561 87.66110592 151.40281359 94.16947109 151.44870156 C97.61535524 151.47263388 101.06108992 151.49136251 104.50705528 151.49761391 C108.35472377 151.5047893 112.2020177 151.5352243 116.04956055 151.56762695 C117.19107574 151.56619186 118.33259094 151.56475677 119.50869751 151.5632782 C120.55892593 151.57581635 121.60915436 151.58835449 122.69120789 151.60127258 C123.60101756 151.60588155 124.51082724 151.61049051 125.4482069 151.61523914 C128.55705672 152.08399334 130.45898483 153.17733201 133 155 C134.42041821 157.84083641 134.31452272 159.85477278 134 163 C131.98731113 165.57509088 130.77753825 166.83949436 127.54001999 167.50780869 C126.61453983 167.51149586 125.68905968 167.51518303 124.73553467 167.51898193 C123.6698526 167.53289474 122.60417053 167.54680756 121.50619507 167.56114197 C120.34238312 167.5561116 119.17857117 167.55108124 117.97949219 167.54589844 C116.13519119 167.56140495 116.13519119 167.56140495 114.25363159 167.57722473 C110.88594197 167.60166212 107.51907894 167.60848938 104.1513586 167.60750484 C100.63054616 167.61063362 97.10989919 167.63625102 93.58917236 167.65948486 C86.92402273 167.70005129 80.25897094 167.720387 73.59371686 167.73345876 C66.00480526 167.74932669 58.41606023 167.78774137 50.82724524 167.82805204 C35.21818753 167.91045984 19.60923735 167.96156992 4 168 C4 175.92 4 183.84 4 192 C7.76567383 192.02505615 11.53134766 192.0501123 15.41113281 192.07592773 C27.83634808 192.15930832 40.26152104 192.24795697 52.68667984 192.33933926 C60.22193102 192.39462894 67.75718693 192.44810393 75.29248047 192.49731445 C81.85985827 192.54020843 88.42720182 192.58649955 94.99452662 192.63687855 C98.47220319 192.6634375 101.94987315 192.68828947 105.42758942 192.70907402 C109.30886871 192.73233409 113.19006746 192.76317819 117.07128906 192.79467773 C118.22575027 192.8004332 119.38021149 192.80618866 120.56965637 192.81211853 C121.62692429 192.82190735 122.6841922 192.83169617 123.77349854 192.84178162 C125.15065725 192.85146044 125.15065725 192.85146044 126.55563736 192.8613348 C128.83979123 192.99091159 130.81030741 193.35865344 133 194 C133.2236337 195.41433206 133.42826476 196.83167618 133.625 198.25 C133.74101562 199.03890625 133.85703125 199.8278125 133.9765625 200.640625 C134.00358289 203.3606779 133.47334432 204.73485839 132 207 C129.49595517 208.25202241 127.77920834 208.13871326 124.9760437 208.15821838 C123.91311096 208.1680072 122.85017822 208.17779602 121.7550354 208.18788147 C120.5840329 208.19363693 119.4130304 208.1993924 118.20654297 208.20532227 C116.97730103 208.21522186 115.74805908 208.22512146 114.48156738 208.23532104 C111.10576555 208.26154395 107.72998782 208.28339145 104.35414648 208.30332303 C100.82804137 208.32516664 97.30197959 208.35256326 93.77590942 208.37937927 C87.09654829 208.42932818 80.41716313 208.47425883 73.73775494 208.51740164 C66.13443894 208.56675525 58.53116641 208.62168032 50.92789245 208.67708123 C35.28530023 208.79093502 19.64266823 208.89703108 4 209 C4 216.92 4 224.84 4 233 C9.70180542 233.029729 9.70180542 233.029729 15.51879883 233.06005859 C28.05580846 233.12686345 40.59273221 233.20440367 53.12964344 233.28752708 C60.73329971 233.33767787 68.33694507 233.38412045 75.94067383 233.421875 C82.56703556 233.45478602 89.19331319 233.49461222 95.81958216 233.54279006 C99.32909235 233.568064 102.83854669 233.58984255 106.34812355 233.60334396 C110.26318961 233.61853473 114.1780509 233.64916221 118.09301758 233.68115234 C119.84412842 233.68439262 119.84412842 233.68439262 121.63061523 233.68769836 C123.22707634 233.70444359 123.22707634 233.70444359 124.85578918 233.7215271 C125.78219113 233.72705786 126.70859308 233.73258862 127.66306782 233.73828697 C130 234 130 234 133 236 C134.43648208 241.47658795 134.43648208 241.47658795 134 244 C131.79364876 247.23238604 130.44104387 248.72506724 126.54326439 249.46871376 C123.33908091 249.65777332 120.16754707 249.68348088 116.95776367 249.65942383 C115.12787399 249.67514938 115.12787399 249.67514938 113.26101685 249.69119263 C109.9241857 249.7150276 106.58870863 249.7168741 103.25189376 249.70889878 C99.76177118 249.70577107 96.27185263 249.73081569 92.78181458 249.75285339 C86.17686643 249.79028904 79.57212418 249.80244107 72.96708041 249.8054778 C65.44584764 249.81016918 57.92482105 249.84309494 50.40367925 249.87837565 C34.93576078 249.95030199 19.46809134 249.9830986 4 250 C4 257.92 4 265.84 4 274 C7.83149658 274.0093457 11.66299316 274.01869141 15.6105957 274.02832031 C28.24743089 274.06203584 40.88409326 274.11735202 53.52079487 274.18390274 C61.18500946 274.22373545 68.84912075 274.25610633 76.51342773 274.27099609 C83.19258645 274.28399081 89.87151827 274.3108992 96.55054921 274.35461307 C100.08807579 274.37727748 103.625322 274.39290774 107.16292763 274.39188385 C111.10926024 274.39100209 115.05501791 274.42117992 119.0012207 274.45410156 C120.17797867 274.4490712 121.35473663 274.44404083 122.56715393 274.43885803 C123.63987549 274.45277084 124.71259705 274.46668365 125.81782532 274.48101807 C127.21848976 274.48654882 127.21848976 274.48654882 128.64745045 274.49219131 C131 275 131 275 132.80044842 276.84493637 C134.4305004 279.7734188 134.41308704 281.6953037 134 285 C132.67314871 287.45467489 131.88845447 288.70396844 129.21253586 289.5955801 C126.71810448 290.05152647 124.38596035 290.14010028 121.84942627 290.15821838 C120.28876686 290.17290161 120.28876686 290.17290161 118.69657898 290.18788147 C117.56081924 290.19363693 116.42505951 290.1993924 115.25488281 290.20532227 C114.05460953 290.21522186 112.85433624 290.22512146 111.61769104 290.23532104 C108.33085513 290.261485 105.04402423 290.28335689 101.75714588 290.30332303 C98.3204724 290.32521315 94.88384272 290.35258701 91.44720459 290.37937927 C84.94144859 290.42926528 78.43566822 290.47421926 71.92986465 290.51740164 C64.52238698 290.56680901 57.11495325 290.62171414 49.7075181 290.67708123 C34.47171781 290.79083846 19.23587715 290.89696534 4 291 C4 298.59 4 306.18 4 314 C7.76043701 314.00410889 11.52087402 314.00821777 15.39526367 314.01245117 C27.80858185 314.02963518 40.22167945 314.0738619 52.63486767 314.13209057 C60.16229172 314.16673849 67.68953269 314.1920958 75.21704102 314.19555664 C81.77832406 314.19859684 88.33928103 314.2190944 94.90043813 314.26052457 C98.3743777 314.28185178 101.84785374 314.29445701 105.32185936 314.28615379 C109.2008122 314.27720989 113.07893231 314.30724259 116.95776367 314.34057617 C118.68406258 314.32763771 118.68406258 314.32763771 120.44523621 314.31443787 C129.1152623 314.43963859 129.1152623 314.43963859 132.22920227 317.40571594 C134.07819447 320.11455778 134.58750862 321.0235213 134 324.1875 C133 328 133 328 130 330 C127.66306782 330.26171303 127.66306782 330.26171303 124.85578918 330.2784729 C123.7936939 330.28962442 122.73159861 330.30077595 121.63731861 330.3122654 C119.8828896 330.31552361 119.8828896 330.31552361 118.09301758 330.31884766 C116.84372058 330.32900091 115.59442358 330.33915417 114.3072691 330.3496151 C110.92611913 330.37521699 107.5451403 330.39227092 104.1639328 330.40519714 C100.99184705 330.41912289 97.81985238 330.44376298 94.64782715 330.4675293 C85.36945198 330.53079514 76.09096589 330.57684404 66.8125 330.625 C46.084375 330.74875 25.35625 330.8725 4 331 C4 373.9 4 416.8 4 461 C24.46 461 44.92 461 66 461 C66.06058594 454.83828125 66.12117188 448.6765625 66.18359375 442.328125 C66.22408352 438.42707626 66.26485444 434.52603454 66.30664062 430.625 C66.37295407 424.43166475 66.4382203 418.23833076 66.49731445 412.04492188 C66.54501655 407.05228508 66.59736157 402.05971666 66.65294075 397.06716156 C66.67333779 395.16138154 66.69205524 393.25558278 66.70907402 391.34976959 C66.73317665 388.68265507 66.76322328 386.01566934 66.79467773 383.34863281 C66.8004332 382.5588504 66.80618866 381.76906799 66.81211853 380.95535278 C66.85886421 377.47352109 67.06986064 374.35130994 68 371 C71.88573171 369.7425214 75.78754616 369.83773786 79.82617188 369.82299805 C80.61037003 369.81642685 81.39456818 369.80985565 82.20252991 369.80308533 C84.79127097 369.78341219 87.37995433 369.77170633 89.96875 369.76171875 C90.85372665 369.75764322 91.73870331 369.7535677 92.65049744 369.74936867 C97.32998418 369.72853868 102.00944182 369.71422077 106.68896484 369.70483398 C111.52466871 369.69374455 116.3599156 369.65930702 121.19545746 369.61966228 C124.91348133 369.59355064 128.63139505 369.58514728 132.34950256 369.58155251 C134.13252365 369.57667649 135.91553949 369.5650337 137.69847107 369.54651451 C140.19062967 369.52222674 142.68158799 369.52306805 145.17382812 369.5300293 C146.27894493 369.51081421 146.27894493 369.51081421 147.40638733 369.49121094 C150.6054114 369.52381713 152.70696306 369.82073589 155.45501709 371.50184631 C157.65576109 375.06033016 157.57145377 378.38066228 157.54589844 382.44042969 C157.55623611 383.28957443 157.56657379 384.13871918 157.57722473 385.01359558 C157.60669087 387.81654808 157.6081527 390.61877968 157.609375 393.421875 C157.62435408 395.36673361 157.64108066 397.31157948 157.65948486 399.25640869 C157.7032011 404.37246276 157.72316697 409.48834522 157.73822021 414.60455322 C157.76121476 420.74457433 157.81364927 426.88440579 157.86116028 433.02427673 C157.93001862 442.34956741 157.96143223 451.67431319 158 461 C178.79 461 199.58 461 221 461 C221 335.93 221 210.86 221 82 C179.87433367 70.00501399 138.74864793 58.01624849 97.59765625 46.109375 C85.8472329 42.70687484 74.10523273 39.27648076 62.36779404 35.82948303 C59.82959784 35.08429161 57.29119829 34.33979748 54.75271606 33.59558105 C53.92490694 33.35288231 53.09709782 33.11018356 52.24420357 32.86013031 C50.58650151 32.37414286 48.92879054 31.88818585 47.27107048 31.40225983 C42.43274053 29.98349277 37.59588147 28.5598401 32.76003933 27.13261795 C29.77936599 26.2540875 26.79741748 25.37994999 23.81511116 24.5069809 C22.4286709 24.1001086 21.0427861 23.69133813 19.65749931 23.28055573 C17.76262375 22.71888678 15.86561462 22.16443075 13.96850586 21.61035156 C12.90643417 21.29761292 11.84436249 20.98487427 10.75010681 20.66265869 C7.82335233 19.84383136 7.82335233 19.84383136 4 20 Z M83 386 C83 410.75 83 435.5 83 461 C102.14 461 121.28 461 141 461 C141 436.25 141 411.5 141 386 C121.86 386 102.72 386 83 386 Z M317 386 C317 410.75 317 435.5 317 461 C336.14 461 355.28 461 375 461 C375 436.25 375 411.5 375 386 C355.86 386 336.72 386 317 386 Z " fill="#000000" transform="translate(27,16)"/>
<path d="M0 0 C1.22332031 -0.03738281 2.44664062 -0.07476562 3.70703125 -0.11328125 C7.78494234 0.38558778 9.3635539 1.37893677 12.1875 4.3125 C13.3534741 8.32053597 13.61990501 10.36532711 11.875 14.1875 C10.1875 16.3125 10.1875 16.3125 8.1875 17.3125 C5.56507644 17.5162399 3.00040797 17.63606725 0.375 17.6875 C-0.33720703 17.72488281 -1.04941406 17.76226562 -1.78320312 17.80078125 C-5.80925883 17.86782011 -7.5878028 17.48883718 -10.7890625 14.9765625 C-12.8125 12.3125 -12.8125 12.3125 -13.375 9.3125 C-12.68892343 5.65342496 -11.38515686 3.96082324 -8.8125 1.3125 C-5.89002427 -0.14873786 -3.25396161 0.0647385 0 0 Z " fill="#000000" transform="translate(422.8125,329.6875)"/>
<path d="M0 0 C1.216875 -0.00515625 2.43375 -0.0103125 3.6875 -0.015625 C6.77740467 0.23215037 8.45218198 0.56154103 11 2.25 C13.06466502 4.90456931 12.99684937 6.3382176 12.875 9.75 C11.88290749 13.71837003 11.25162317 14.84504548 8 17.25 C5.17367345 17.62389945 2.80976072 17.76639727 0 17.6875 C-0.7115625 17.69458984 -1.423125 17.70167969 -2.15625 17.70898438 C-5.29521478 17.67091857 -7.64716936 17.43486973 -10.4453125 15.96875 C-13.06159626 13.076376 -13.06878 10.03290002 -13 6.25 C-12.23093805 3.59324054 -11.64397691 2.67523891 -9.35546875 1.1640625 C-6.16525548 -0.07393071 -3.41372053 -0.01446492 0 0 Z " fill="#000000" transform="translate(423,207.75)"/>
<path d="M0 0 C0.80695313 -0.01933594 1.61390625 -0.03867187 2.4453125 -0.05859375 C6.6311574 -0.02405708 8.37396395 0.04340478 11.53125 2.9765625 C13.34015733 6.2383688 13.61294663 7.94732021 13 11.625 C10.12842105 16.24003759 10.12842105 16.24003759 7.16796875 17.25 C1.56679073 18.21885241 -5.00943261 18.6495863 -10 15.625 C-12.39442371 13.31314262 -12.94472919 11.996104 -13.4375 8.6875 C-12.25684104 0.42288729 -7.14246353 -0.17114529 0 0 Z " fill="#000000" transform="translate(423,289.375)"/>
<path d="M0 0 C1.08087891 -0.0309375 1.08087891 -0.0309375 2.18359375 -0.0625 C5.36700692 -0.08595056 7.72267867 0.04048442 10.5703125 1.5234375 C12.83068704 4.03370269 13.02861515 5.96195615 13.30078125 9.24609375 C13.01753664 12.47508229 11.41616235 14.08976121 9.125 16.25 C6.20252427 17.71123786 3.56646161 17.4977615 0.3125 17.5625 C-1.52248047 17.61857422 -1.52248047 17.61857422 -3.39453125 17.67578125 C-7.47244234 17.17691222 -9.0510539 16.18356323 -11.875 13.25 C-13.0409741 9.24196403 -13.30740501 7.19717289 -11.5625 3.375 C-8.3954343 -0.6131568 -4.73616074 0.03353034 0 0 Z " fill="#000000" transform="translate(422.875,248.75)"/>
<path d="M0 0 C1.82144531 -0.02513672 1.82144531 -0.02513672 3.6796875 -0.05078125 C7.3451773 0.33571597 9.21201875 1.10357879 12.125 3.3125 C13.69435594 6.45121188 13.47701103 8.85105822 13.125 12.3125 C10.35633951 16.00761748 8.88365532 17.18849644 4.27734375 17.94140625 C2.87222702 17.94535691 1.46681493 17.92262571 0.0625 17.875 C-0.64455078 17.88595703 -1.35160156 17.89691406 -2.08007812 17.90820312 C-5.54397647 17.85941582 -7.52722974 17.57667164 -10.3125 15.4609375 C-12.35379374 12.6541586 -12.80426825 10.77835593 -12.875 7.3125 C-10.00141078 0.99060371 -6.6633238 0.02113105 0 0 Z " fill="#000000" transform="translate(188.875,207.6875)"/>
<path d="M0 0 C1.54300781 -0.03867188 1.54300781 -0.03867188 3.1171875 -0.078125 C6.5642797 0.29792142 8.36092829 1.18898486 11.125 3.25 C13.47049674 6.76824511 13.70491403 8.10775694 13.125 12.25 C10.35211981 15.88306075 8.86708301 17.12074374 4.3125 17.9140625 C2.91666805 17.92723073 1.5203598 17.91361697 0.125 17.875 C-0.92300781 17.90400391 -0.92300781 17.90400391 -1.9921875 17.93359375 C-5.93543383 17.89639331 -7.72717208 17.36724955 -10.83984375 14.8984375 C-12.875 12.25 -12.875 12.25 -13.4375 9.25 C-12.74706143 5.56766096 -11.50686072 3.88186072 -8.875 1.25 C-5.71490467 0.19663489 -3.3196864 0.04967112 0 0 Z " fill="#000000" transform="translate(422.875,166.75)"/>
<path d="M0 0 C0.75925781 -0.02384766 1.51851562 -0.04769531 2.30078125 -0.07226562 C6.35052626 -0.06162707 7.93307623 0.03809552 11 2.875 C12.96824309 6.40143553 13.07887269 8.58275028 12.5 12.5625 C10.63291495 14.92747439 9.17938569 16.22280715 6.5 17.5625 C4.39946284 17.71151491 2.29312175 17.78388453 0.1875 17.8125 C-0.94300781 17.83828125 -2.07351562 17.8640625 -3.23828125 17.890625 C-6.81391984 17.53092004 -8.63154785 16.67636834 -11.5 14.5625 C-13.42863839 12.02020394 -13.50902291 10.77904982 -13.375 7.5625 C-11.24754942 0.26838372 -6.72644578 -0.09707095 0 0 Z " fill="#000000" transform="translate(189.5,126.4375)"/>
<path d="M0 0 C0.71220703 -0.03287109 1.42441406 -0.06574219 2.15820312 -0.09960938 C6.1507435 -0.14023652 7.97812285 0.27538384 11.1640625 2.7421875 C13.1875 5.4375 13.1875 5.4375 13.75 9 C13.10878811 12.91851711 12.29250781 14.06308226 9.1875 16.4375 C6.26502427 17.89873786 3.62896161 17.6852615 0.375 17.75 C-1.45998047 17.80607422 -1.45998047 17.80607422 -3.33203125 17.86328125 C-7.40099583 17.36550668 -8.97666165 16.34148234 -11.8125 13.4375 C-13.05971924 9.77379348 -13.17547705 8.19802334 -11.5 4.6875 C-8.03907758 0.07293677 -5.50488067 0.04411748 0 0 Z " fill="#000000" transform="translate(188.8125,248.5625)"/>
<path d="M0 0 C1.06057617 -0.00386719 1.06057617 -0.00386719 2.14257812 -0.0078125 C5.26115936 0.05075241 7.59895754 0.32067574 10.37109375 1.7890625 C12.65466703 4.28333955 12.84309013 6.20989632 13.109375 9.49609375 C12.82931877 12.76129484 11.2869877 14.34630294 8.9375 16.5 C5.77740467 17.55336511 3.3821864 17.70032888 0.0625 17.75 C-1.48050781 17.78867188 -1.48050781 17.78867188 -3.0546875 17.828125 C-6.5017797 17.45207858 -8.29842829 16.56101514 -11.0625 14.5 C-13.40799674 10.98175489 -13.64241403 9.64224306 -13.0625 5.5 C-9.2630938 0.497693 -6.01490782 -0.24258107 0 0 Z " fill="#000000" transform="translate(423.0625,126.5)"/>
<path d="M0 0 C1.1240625 -0.00515625 2.248125 -0.0103125 3.40625 -0.015625 C6.40456495 0.24180608 8.0384044 0.57163937 10.5 2.25 C13.00031654 6.00047482 13.03603554 7.80856266 12.5 12.25 C9.72620439 15.93946945 8.25834201 17.12604765 3.65234375 17.87890625 C2.24722702 17.88285691 0.84181493 17.86012571 -0.5625 17.8125 C-1.26955078 17.82345703 -1.97660156 17.83441406 -2.70507812 17.84570312 C-6.16897647 17.79691582 -8.15222974 17.51417164 -10.9375 15.3984375 C-12.97879374 12.5916586 -13.42926825 10.71585593 -13.5 7.25 C-12.29777755 4.4659059 -11.33719601 2.80174474 -8.79296875 1.125 C-5.77745132 -0.02572556 -3.22146547 -0.01477736 0 0 Z " fill="#000000" transform="translate(189.5,329.75)"/>
<path d="M0 0 C3.8971503 3.26857767 3.8971503 3.26857767 4.3125 6.9375 C3.86514819 11.33645949 3.17293566 12.65162455 -0.0625 15.625 C-2.91490688 16.33529054 -5.63754049 16.27937054 -8.5625 16.1875 C-9.32175781 16.19845703 -10.08101562 16.20941406 -10.86328125 16.22070312 C-14.61394568 16.17143871 -16.48734241 16.06226492 -19.5390625 13.7421875 C-21.34024838 11.23900096 -21.91219782 9.70619473 -22.0625 6.625 C-21.1263375 3.52846249 -20.35826678 1.92076678 -18.0625 -0.375 C-12.42631551 -2.29894919 -5.40645933 -2.4273899 0 0 Z " fill="#000000" transform="translate(198.0625,168.375)"/>
<path d="M0 0 C0.76828125 -0.02900391 1.5365625 -0.05800781 2.328125 -0.08789062 C6.06807347 -0.12994887 8.0105532 -0.12105826 11.1328125 2.08203125 C13.14016712 5.08255347 13.19885015 6.89615956 13.015625 10.41015625 C12.40578578 13.38007326 11.06936955 14.61502114 8.625 16.3125 C2.89796684 18.12809136 -3.17289739 17.98099544 -8.875 16.25 C-11.375 14.3125 -11.375 14.3125 -12.9375 11 C-13.45127669 6.66959648 -12.7666117 4.89991755 -10.375 1.3125 C-7.11816597 -0.31591701 -3.57541665 0.04454423 0 0 Z " fill="#000000" transform="translate(189.375,289.6875)"/>
</svg>
