<?xml version="1.0" encoding="UTF-8"?>
<svg version="1.1" xmlns="http://www.w3.org/2000/svg" width="512" height="512">
<path d="M0 0 C1.18803223 -0.01260864 2.37606445 -0.02521729 3.60009766 -0.03820801 C4.87933105 -0.03011108 6.15856445 -0.02201416 7.4765625 -0.01367188 C8.79317871 -0.01749878 10.10979492 -0.02132568 11.46630859 -0.02526855 C14.25051684 -0.03115911 17.03421099 -0.02261601 19.81835938 -0.00390625 C23.38305583 0.01888437 26.94654768 0.00575872 30.51119995 -0.01819611 C33.9164168 -0.03614518 37.32131144 -0.02356965 40.7265625 -0.01367188 C42.6454126 -0.02581726 42.6454126 -0.02581726 44.60302734 -0.03820801 C46.38507568 -0.01929504 46.38507568 -0.01929504 48.203125 0 C49.77054443 0.00477356 49.77054443 0.00477356 51.36962891 0.00964355 C54.81846465 0.65086811 56.01745582 1.73467887 58.1015625 4.51757812 C58.27820071 7.35907545 58.24025573 9.80653598 58.0078125 12.61523438 C57.92806426 14.23290602 57.85555043 15.8509474 57.78955078 17.46923828 C57.73737396 18.72501678 57.73737396 18.72501678 57.68414307 20.00616455 C56.90442041 32.60750519 56.90442041 32.60750519 60.85253906 44.15478516 C65.44139589 48.00366617 70.85854094 49.76464256 76.50146484 51.56152344 C80.53197446 53.04353993 83.68222808 55.386788 87.0390625 58.01757812 C87.94422607 58.7056958 87.94422607 58.7056958 88.86767578 59.40771484 C90.62822936 60.75870352 92.3675415 62.13275239 94.1015625 63.51757812 C94.64828613 63.95005859 95.19500977 64.38253906 95.75830078 64.828125 C109.86846506 76.08240895 122.52588492 88.88474573 133.1015625 103.51757812 C133.51180664 104.07815918 133.92205078 104.63874023 134.34472656 105.21630859 C157.15764799 136.72631765 171.93002463 176.88220517 172.33984375 216.01367188 C172.34968292 216.7961731 172.35952209 217.57867432 172.36965942 218.3848877 C173.01745845 283.36386561 148.42058626 336.072506 106.1015625 384.51757812 C104.91298875 385.93334404 103.72527824 387.34983594 102.5390625 388.76757812 C99.84987222 391.80153639 99.20429231 392.37054748 95.2890625 392.89257812 C92.1015625 392.51757812 92.1015625 392.51757812 89.2265625 390.39257812 C86.69587028 386.96870042 86.650334 385.67832465 87.1015625 381.51757812 C88.4296875 379.27148438 88.4296875 379.27148438 90.3515625 377.08007812 C91.08503906 376.21511719 91.81851562 375.35015625 92.57421875 374.45898438 C93.40824219 373.48832031 94.24226563 372.51765625 95.1015625 371.51757812 C108.43716987 355.38821176 120.60252191 338.63539154 131.1015625 320.51757812 C131.65602051 319.57350098 131.65602051 319.57350098 132.22167969 318.61035156 C148.39657354 290.8372389 155.57161059 258.772322 155.4140625 226.83007812 C155.41190735 226.03977203 155.4097522 225.24946594 155.40753174 224.43521118 C155.35426565 212.23558389 154.82196793 200.45265425 152.1015625 188.51757812 C151.90288574 187.61861816 151.70420898 186.7196582 151.49951172 185.79345703 C143.0982481 148.6579839 125.09497832 116.6212851 98.4140625 89.58007812 C97.90367432 89.06026367 97.39328613 88.54044922 96.86743164 88.00488281 C94.03623584 85.19766869 91.10423544 82.70689416 87.89916992 80.33178711 C87.18589035 79.80173569 86.47261078 79.27168427 85.73771667 78.72557068 C85.1977858 78.32693314 84.65785492 77.92829559 84.1015625 77.51757812 C83.84587946 85.09333336 83.67201713 92.66795889 83.55224609 100.24707031 C83.50226912 102.81943327 83.43426077 105.39151672 83.34716797 107.96289062 C82.38869418 127.51679595 82.38869418 127.51679595 91.60693359 143.92431641 C92.8417749 145.20798096 92.8417749 145.20798096 94.1015625 146.51757812 C110.49738092 170.21315439 117.56144997 199.56998765 117.4765625 228.01757812 C117.47574677 229.05739838 117.47574677 229.05739838 117.47491455 230.1182251 C117.36176563 261.71212035 107.62506437 290.96792037 89.1015625 316.51757812 C88.49054688 317.37351562 87.87953125 318.22945313 87.25 319.11132812 C65.17998557 348.27874807 31.75298843 368.87923779 -4.60546875 374.02148438 C-41.19121511 378.50465783 -78.40147253 371.02698309 -108.4609375 348.95507812 C-113.82063224 344.70300407 -118.93062533 340.21952879 -123.8984375 335.51757812 C-124.84460938 334.64746094 -125.79078125 333.77734375 -126.765625 332.88085938 C-151.54342085 309.5777394 -167.12453526 274.61562814 -169.12133789 240.7355957 C-169.23786967 236.68114564 -169.28504995 232.63581272 -169.2734375 228.58007812 C-169.27289368 227.86069061 -169.27234985 227.1413031 -169.27178955 226.40011597 C-169.14304662 189.1578756 -155.81462039 153.5582235 -129.8984375 126.51757812 C-128.99130325 125.42267684 -128.09370822 124.31971584 -127.2109375 123.20507812 C-120.89795696 115.86837101 -120.89795696 115.86837101 -115.3359375 114.89257812 C-110.95028325 115.68996981 -109.48207035 116.91615052 -106.8984375 120.51757812 C-106.2109375 123.39257812 -106.2109375 123.39257812 -106.8984375 126.51757812 C-108.63159158 129.13047911 -110.53675123 131.44957305 -112.8984375 133.51757812 C-113.5584375 133.51757812 -114.2184375 133.51757812 -114.8984375 133.51757812 C-115.14464844 134.08734375 -115.39085937 134.65710938 -115.64453125 135.24414062 C-117.10529069 137.89262035 -118.85788299 139.71905088 -120.9609375 141.89257812 C-137.233015 159.72927846 -146.675462 183.0058767 -150.8984375 206.51757812 C-151.0840625 207.52046875 -151.2696875 208.52335938 -151.4609375 209.55664062 C-154.44906995 236.6099112 -151.48029007 269.14479927 -135.8984375 292.51757812 C-135.88963814 290.99327934 -135.88963814 290.99327934 -135.88066101 289.43818665 C-135.82343698 279.85937888 -135.75067699 270.28079821 -135.66272259 260.70222187 C-135.61800357 255.77781626 -135.57875077 250.85349369 -135.55200195 245.92895508 C-135.52598433 241.17609408 -135.48559274 236.42355233 -135.43525124 231.6708889 C-135.41857211 229.85806437 -135.40706434 228.0451846 -135.40082359 226.23229408 C-135.39119385 223.69203892 -135.36314858 221.1526024 -135.33081055 218.61254883 C-135.33296318 217.48937256 -135.33296318 217.48937256 -135.3351593 216.34350586 C-135.24777062 211.48669548 -134.39688523 208.01602585 -130.8984375 204.51757812 C-128.67988486 204.42974271 -126.45855254 204.41063204 -124.23828125 204.41992188 C-123.24158165 204.4220443 -123.24158165 204.4220443 -122.2247467 204.42420959 C-120.09509851 204.42982294 -117.96555411 204.44237759 -115.8359375 204.45507812 C-114.39518381 204.46009141 -112.95442847 204.46465461 -111.51367188 204.46875 C-107.97522648 204.47979668 -104.43684211 204.49707021 -100.8984375 204.51757812 C-100.91414795 203.51380127 -100.9298584 202.51002441 -100.94604492 201.47583008 C-101.00048864 197.73925858 -101.03483976 194.00272192 -101.06323242 190.26586914 C-101.07828626 188.65090024 -101.09873398 187.03597199 -101.12475586 185.42114258 C-101.16129036 183.09511257 -101.17819765 180.76962472 -101.19140625 178.44335938 C-101.20689011 177.72545731 -101.22237396 177.00755524 -101.23832703 176.26789856 C-101.23980364 171.83446843 -100.63515173 169.03858699 -97.8984375 165.51757812 C-94.80669998 163.97170937 -92.30414198 164.22398291 -88.8984375 164.51757812 C-86.69628906 166.02050781 -86.69628906 166.02050781 -84.8984375 168.51757812 C-84.549337 171.40722933 -84.4302813 173.90350523 -84.5078125 176.78320312 C-84.51347229 177.57660095 -84.51913208 178.36999878 -84.52496338 179.18743896 C-84.54730603 181.71477286 -84.59749574 184.24067478 -84.6484375 186.76757812 C-84.66850536 188.48370344 -84.68675563 190.19985104 -84.703125 191.91601562 C-84.74716355 196.11708593 -84.81617424 200.31708947 -84.8984375 204.51757812 C-79.9484375 204.51757812 -74.9984375 204.51757812 -69.8984375 204.51757812 C-69.92462158 202.5141333 -69.95080566 200.51068848 -69.9777832 198.4465332 C-70.0606984 191.82098819 -70.11588729 185.19542002 -70.15749836 178.56949329 C-70.18357257 174.55280384 -70.21892928 170.53664674 -70.27563477 166.52026367 C-70.33003459 162.64284231 -70.35987441 158.76593237 -70.37282372 154.8881588 C-70.38204952 153.41014239 -70.40006608 151.93215342 -70.42708778 150.45435524 C-70.46348838 148.38082438 -70.46837889 146.30939559 -70.46606445 144.2355957 C-70.47716751 143.05645096 -70.48827057 141.87730621 -70.49971008 140.66242981 C-69.7141608 136.55375089 -68.14490452 135.07311529 -64.8984375 132.51757812 C-61.3359375 131.95507812 -61.3359375 131.95507812 -57.8984375 132.51757812 C-54.9225346 134.71791701 -53.9974692 135.88705997 -53.41741943 139.58013916 C-53.42630188 140.77926941 -53.43518433 141.97839966 -53.44433594 143.21386719 C-53.44375183 143.87769409 -53.44316772 144.541521 -53.44256592 145.22546387 C-53.44534485 147.41191551 -53.47642422 149.59699075 -53.5078125 151.78320312 C-53.51527566 153.30205541 -53.52096824 154.82091735 -53.52496338 156.33978271 C-53.54021409 160.33161138 -53.57949027 164.3228551 -53.6237793 168.31445312 C-53.66474461 172.38989347 -53.68297704 176.46542861 -53.703125 180.54101562 C-53.74598591 188.53350108 -53.8163304 196.52539938 -53.8984375 204.51757812 C-47.6284375 204.51757812 -41.3584375 204.51757812 -34.8984375 204.51757812 C-34.8984375 169.20757812 -34.8984375 133.89757812 -34.8984375 97.51757812 C-58.21473541 101.70439188 -58.21473541 101.70439188 -80.1484375 109.95507812 C-83.72404807 111.63771839 -86.05937954 111.88867025 -89.8984375 110.51757812 C-92.73180128 108.75893853 -92.92731583 107.41361612 -93.8359375 104.14257812 C-93.8984375 100.51757812 -93.8984375 100.51757812 -92.3828125 98.00976562 C-89.34067544 94.9580621 -86.16352852 93.5304695 -82.2109375 92.01757812 C-81.46489258 91.72278564 -80.71884766 91.42799316 -79.95019531 91.12426758 C-65.35320143 85.48591093 -50.65353241 81.33102695 -34.8984375 81.51757812 C-34.93324219 80.215625 -34.96804687 78.91367188 -35.00390625 77.57226562 C-35.03205651 75.84571609 -35.05935534 74.11915252 -35.0859375 72.39257812 C-35.11107422 71.53664063 -35.13621094 70.68070312 -35.16210938 69.79882812 C-35.22199372 64.60885185 -34.85048944 60.99211689 -31.8984375 56.51757812 C-29.49783933 55.31727904 -28.00483101 55.4029807 -25.328125 55.41992188 C-24.43222656 55.42314453 -23.53632813 55.42636719 -22.61328125 55.4296875 C-21.20755859 55.44225586 -21.20755859 55.44225586 -19.7734375 55.45507812 C-18.82855469 55.45958984 -17.88367188 55.46410156 -16.91015625 55.46875 C-14.5728898 55.48055438 -12.23565581 55.49849014 -9.8984375 55.51757812 C-9.8984375 50.23757812 -9.8984375 44.95757812 -9.8984375 39.51757812 C-42.32382534 38.87853763 -72.3550577 42.38409463 -101.8984375 56.51757812 C-102.69765625 56.89930176 -103.496875 57.28102539 -104.3203125 57.67431641 C-147.84602351 78.80473224 -180.87530321 117.49700577 -197.078125 162.90820312 C-203.98011358 183.41655096 -207.33046637 204.31118503 -207.2734375 225.89257812 C-207.27289368 226.6741629 -207.27234985 227.45574768 -207.27178955 228.26101685 C-207.13745157 270.54362847 -193.31439109 308.9216777 -167.8984375 342.51757812 C-167.10131348 343.57162842 -167.10131348 343.57162842 -166.28808594 344.64697266 C-158.94291775 354.309791 -151.3426383 363.69713769 -143.35742188 372.83642578 C-141.8831858 374.53515229 -140.42745215 376.24810283 -138.9765625 377.96679688 C-132.57787177 385.53534603 -125.94534102 392.83638514 -119.1484375 400.04882812 C-116.45288957 402.91245872 -113.81922127 405.82394358 -111.2109375 408.76757812 C-107.20704709 413.25611077 -102.97420851 417.48266648 -98.671875 421.68164062 C-96.57789876 423.82280506 -94.62138365 425.97000557 -92.67407227 428.23754883 C-89.16763809 432.25986401 -85.49316065 436.06806602 -81.71484375 439.83398438 C-81.05564438 440.49414047 -80.39644501 441.15429657 -79.7172699 441.8344574 C-78.33446915 443.21793318 -76.95042674 444.60016896 -75.56518555 445.98120117 C-73.46613407 448.07489482 -71.3724781 450.17387687 -69.27929688 452.2734375 C-67.92479964 453.62727383 -66.56999219 454.98079988 -65.21484375 456.33398438 C-64.60000626 456.9508461 -63.98516876 457.56770782 -63.35169983 458.20326233 C-59.60802382 461.92718645 -55.74899764 465.46100923 -51.73912048 468.89707947 C-48.64380092 471.62213383 -45.78269321 474.57287639 -42.8984375 477.51757812 C-37.17351298 483.29541037 -37.17351298 483.29541037 -31.2734375 488.89257812 C-30.70367187 489.4159375 -30.13390625 489.93929688 -29.546875 490.47851562 C-27.65922563 491.87307049 -27.65922563 491.87307049 -23.8984375 491.51757812 C-22.25106722 490.49337596 -22.25106722 490.49337596 -20.7890625 488.98242188 C-20.20745361 488.42796387 -19.62584473 487.87350586 -19.02661133 487.30224609 C-18.40681396 486.69268066 -17.7870166 486.08311523 -17.1484375 485.45507812 C-15.80363567 484.16445274 -14.45857488 482.87409713 -13.11328125 481.58398438 C-12.41960449 480.91254395 -11.72592773 480.24110352 -11.01123047 479.54931641 C-8.28293469 476.92568832 -5.51095624 474.35112093 -2.73730469 471.77563477 C3.74160463 465.75493265 10.07695836 459.62511413 16.2578125 453.29882812 C18.32307105 451.27895987 20.37337845 449.4111364 22.56640625 447.54492188 C28.41668293 442.47652397 33.82242417 436.94565032 39.28344727 431.46606445 C41.15985725 429.58429538 43.04155219 427.70793074 44.92382812 425.83203125 C50.37898902 420.3796249 55.77529882 414.93544215 60.78295898 409.06274414 C63.56932154 405.79762868 66.43568967 402.78349164 70.1015625 400.51757812 C74.27107074 400.30910271 76.13377595 400.84757205 79.5390625 403.20507812 C81.1015625 405.51757812 81.1015625 405.51757812 81.7890625 408.26757812 C80.73369845 413.25657182 77.56436517 415.91678901 74.1015625 419.51757812 C72.78538902 421.03523343 71.47291635 422.55610572 70.1640625 424.08007812 C67.7732591 426.85971549 65.24908232 429.28294698 62.46850586 431.65991211 C58.10157565 435.46260152 54.01414573 439.49420431 49.9453125 443.61132812 C49.1987439 444.36168335 48.45217529 445.11203857 47.6829834 445.88513184 C45.32004225 448.26017733 42.9603888 450.63844629 40.6015625 453.01757812 C37.48995604 456.1559703 34.37492495 459.29090557 31.2578125 462.42382812 C30.20901917 463.48506897 30.20901917 463.48506897 29.13903809 464.56774902 C25.1927712 468.53334764 21.13657742 472.29124877 16.89978027 475.94421387 C14.57493405 477.97835568 12.39354406 480.12935464 10.2265625 482.33007812 C9.38609375 483.17828125 8.545625 484.02648437 7.6796875 484.90039062 C6.82890625 485.7640625 5.978125 486.62773437 5.1015625 487.51757812 C-0.18062478 492.87979855 -5.46653998 498.1345159 -11.1875 503.02978516 C-13.35183308 504.91184078 -15.35719267 506.94131159 -17.3984375 508.95507812 C-20.17991239 511.39781422 -22.21699911 513.10339702 -25.9609375 513.45507812 C-29.37806878 512.97050594 -31.12068205 511.73380283 -33.64453125 509.42382812 C-34.34118896 508.7914624 -35.03784668 508.15909668 -35.75561523 507.50756836 C-36.46274658 506.85087158 -37.16987793 506.1941748 -37.8984375 505.51757812 C-38.56367432 504.90664307 -39.22891113 504.29570801 -39.91430664 503.66625977 C-41.91921406 501.81479795 -43.91082789 499.9500891 -45.8984375 498.08007812 C-46.59904297 497.42265625 -47.29964844 496.76523437 -48.02148438 496.08789062 C-52.10642079 492.2427967 -56.11838204 488.34250983 -60.04664612 484.33692932 C-61.80536005 482.60902502 -63.61815226 481.00856514 -65.49584961 479.41186523 C-70.49601211 475.0615956 -75.1604515 470.3991733 -79.83984375 465.70898438 C-80.76635239 464.78343246 -81.69286102 463.85788055 -82.64744568 462.90428162 C-84.59626111 460.95692957 -86.54328487 459.007809 -88.48901367 457.05737305 C-90.96207611 454.57861418 -93.43960283 452.10437382 -95.91850376 449.63145542 C-98.31139951 447.24307667 -100.70044068 444.85085733 -103.08984375 442.45898438 C-103.96919083 441.58166153 -104.8485379 440.70433868 -105.75453186 439.8004303 C-110.15791362 435.38041646 -114.42358602 430.90347975 -118.47703552 426.15916443 C-120.34629894 424.00034006 -122.34954688 422.00530783 -124.3984375 420.01757812 C-127.74777479 416.70771114 -130.89769706 413.31010863 -133.9609375 409.73632812 C-135.88446527 407.53357858 -137.85948864 405.38444112 -139.84863281 403.2409668 C-144.6855142 398.02698106 -149.27577961 392.68825154 -153.734375 387.14257812 C-155.79629832 384.64147259 -157.9426479 382.26680984 -160.1484375 379.89257812 C-165.95978911 373.5051447 -171.07328012 366.59521051 -176.25195312 359.69482422 C-177.80798368 357.6371907 -179.3870851 355.60021063 -180.9765625 353.56835938 C-206.45086415 320.77066253 -223.85062934 279.89206633 -224.1015625 237.88085938 C-224.10862213 237.08737595 -224.11568176 236.29389252 -224.12295532 235.47636414 C-224.44077257 189.23564786 -214.9512997 144.49427893 -186.8984375 106.51757812 C-186.14304688 105.47988281 -185.38765625 104.4421875 -184.609375 103.37304688 C-178.9837801 95.78103799 -172.81114449 88.78379515 -166.27978516 81.96191406 C-165.05335711 80.67956194 -163.84014263 79.38460152 -162.62890625 78.08789062 C-130.62988785 44.72342246 -81.81906336 23.80772929 -35.83642578 22.42553711 C-32.56473521 22.38440081 -29.29534672 22.38097561 -26.0234375 22.39257812 C-24.9096875 22.38871094 -23.7959375 22.38484375 -22.6484375 22.38085938 C-21.04355469 22.38279297 -21.04355469 22.38279297 -19.40625 22.38476562 C-18.44348145 22.38589355 -17.48071289 22.38702148 -16.48876953 22.38818359 C-14.13850794 22.50558592 -12.14648414 22.84999247 -9.8984375 23.51757812 C-9.91938477 22.96295898 -9.94033203 22.40833984 -9.96191406 21.83691406 C-10.04527298 19.3139879 -10.09715618 16.79135164 -10.1484375 14.26757812 C-10.18195313 13.39488281 -10.21546875 12.5221875 -10.25 11.62304688 C-10.26289063 10.77871094 -10.27578125 9.934375 -10.2890625 9.06445312 C-10.31000977 8.2894043 -10.33095703 7.51435547 -10.35253906 6.71582031 C-9.196749 1.12080219 -5.1433486 0.01566401 0 0 Z M6.1015625 15.51757812 C6.1015625 28.71757813 6.1015625 41.91757813 6.1015625 55.51757812 C17.9815625 55.51757812 29.8615625 55.51757812 42.1015625 55.51757812 C42.1015625 42.31757812 42.1015625 29.11757812 42.1015625 15.51757812 C30.2215625 15.51757812 18.3415625 15.51757812 6.1015625 15.51757812 Z M-18.8984375 71.51757812 C-18.8984375 166.22757813 -18.8984375 260.93757813 -18.8984375 358.51757812 C-12.17422627 358.51757812 -7.17181302 358.2766415 -0.8359375 356.89257812 C0.39624512 356.62525879 0.39624512 356.62525879 1.65332031 356.35253906 C24.57213568 351.12482008 44.12872101 339.68483467 61.1015625 323.51757812 C62.63807937 322.27349465 62.63807937 322.27349465 64.20563698 321.00427818 C67.52775626 317.64396534 67.81260333 314.91904792 67.87605035 310.30450404 C67.8585733 309.3648078 67.84109626 308.42511157 67.8230896 307.4569397 C67.83077942 305.94241905 67.83077942 305.94241905 67.8386246 304.39730203 C67.84850388 301.01568196 67.8155136 297.63584989 67.78271484 294.25439453 C67.78102235 291.82989545 67.78197249 289.40539329 67.78536987 286.980896 C67.78673594 281.76208857 67.76972482 276.54368509 67.73594284 271.32500076 C67.68713224 263.77975506 67.67154932 256.23472687 67.66401489 248.6893404 C67.6508906 236.44690419 67.61098148 224.20470817 67.55419922 211.96240234 C67.4991056 200.07178955 67.45664466 188.18124204 67.43115234 176.29052734 C67.42878783 175.19069049 67.42878783 175.19069049 67.42637555 174.0686347 C67.4185452 170.39017739 67.41096298 166.71171962 67.40350413 163.03326154 C67.34132702 132.52782373 67.23072941 102.02282689 67.1015625 71.51757812 C38.7215625 71.51757812 10.3415625 71.51757812 -18.8984375 71.51757812 Z M83.1015625 161.51757812 C83.1015625 205.40757812 83.1015625 249.29757813 83.1015625 294.51757812 C86.77766055 289.92245556 88.81741793 286.31287041 91.0390625 281.01757812 C91.38461182 280.19676758 91.73016113 279.37595703 92.08618164 278.53027344 C106.55090775 242.72442472 103.44642653 204.4358033 88.62890625 169.50585938 C86.96528444 166.00408087 86.96528444 166.00408087 83.1015625 161.51757812 Z M-118.8984375 219.51757812 C-119.2770572 236.61788734 -119.2770572 236.61788734 -119.53320312 253.71875 C-119.61069039 260.70273485 -119.70197556 267.68448798 -119.87915039 274.66674805 C-120.02122518 280.30152464 -120.09829732 285.93390686 -120.13184166 291.5703373 C-120.1557193 293.71190381 -120.20235155 295.85335052 -120.27292824 297.99388695 C-120.90144904 311.78464 -120.90144904 311.78464 -114.48810101 323.44791889 C-111.77209933 326.02959138 -108.91793518 328.30399326 -105.8984375 330.51757812 C-104.70230601 331.45239402 -103.5082786 332.38990908 -102.31648254 333.33024597 C-83.39051526 347.89091918 -59.02207659 358.51757812 -34.8984375 358.51757812 C-34.8984375 312.64757812 -34.8984375 266.77757812 -34.8984375 219.51757812 C-62.6184375 219.51757812 -90.3384375 219.51757812 -118.8984375 219.51757812 Z " fill="#000000" transform="translate(281.8984375,-0.517578125)"/>
<path d="M0 0 C1.1758667 -0.00574036 1.1758667 -0.00574036 2.37548828 -0.01159668 C4.02963549 -0.01431353 5.68382583 -0.0069681 7.33789062 0.00976562 C9.86686162 0.03118108 12.39299214 0.00995903 14.921875 -0.015625 C16.53125626 -0.01298168 18.14063575 -0.00785661 19.75 0 C20.5042627 -0.00809692 21.25852539 -0.01619385 22.03564453 -0.02453613 C25.57069551 0.03846039 27.51186032 0.25122832 30.34960938 2.43945312 C32.0037932 4.70786654 32.41834208 5.75735697 32.375 8.53125 C32.3853125 9.19125 32.395625 9.85125 32.40625 10.53125 C31.6049605 13.5478693 30.34600621 14.62582532 27.875 16.53125 C25.03396168 16.92917556 22.58817706 17.09296751 19.75 17.0625 C18.96608887 17.0663269 18.18217773 17.07015381 17.37451172 17.07409668 C15.72036451 17.07681353 14.06617417 17.0694681 12.41210938 17.05273438 C9.88313838 17.03131892 7.35700786 17.05254097 4.828125 17.078125 C3.21874374 17.07548168 1.60936425 17.07035661 0 17.0625 C-1.13139404 17.07464539 -1.13139404 17.07464539 -2.28564453 17.08703613 C-5.82069551 17.02403961 -7.76186032 16.81127168 -10.59960938 14.62304688 C-12.2537932 12.35463346 -12.66834208 11.30514303 -12.625 8.53125 C-12.64046875 7.54125 -12.64046875 7.54125 -12.65625 6.53125 C-10.94731775 0.0976227 -5.7219951 -0.06142496 0 0 Z " fill="#000000" transform="translate(296.125,284.46875)"/>
<path d="M0 0 C1.1758667 -0.00574036 1.1758667 -0.00574036 2.37548828 -0.01159668 C4.02963549 -0.01431353 5.68382583 -0.0069681 7.33789062 0.00976562 C9.86686162 0.03118108 12.39299214 0.00995903 14.921875 -0.015625 C16.53125626 -0.01298168 18.14063575 -0.00785661 19.75 0 C20.5042627 -0.00809692 21.25852539 -0.01619385 22.03564453 -0.02453613 C25.57069551 0.03846039 27.51186032 0.25122832 30.34960938 2.43945312 C32.0037932 4.70786654 32.41834208 5.75735697 32.375 8.53125 C32.3853125 9.19125 32.395625 9.85125 32.40625 10.53125 C31.6049605 13.5478693 30.34600621 14.62582532 27.875 16.53125 C25.03396168 16.92917556 22.58817706 17.09296751 19.75 17.0625 C18.96608887 17.0663269 18.18217773 17.07015381 17.37451172 17.07409668 C15.72036451 17.07681353 14.06617417 17.0694681 12.41210938 17.05273438 C9.88313838 17.03131892 7.35700786 17.05254097 4.828125 17.078125 C3.21874374 17.07548168 1.60936425 17.07035661 0 17.0625 C-1.13139404 17.07464539 -1.13139404 17.07464539 -2.28564453 17.08703613 C-5.82069551 17.02403961 -7.76186032 16.81127168 -10.59960938 14.62304688 C-12.2537932 12.35463346 -12.66834208 11.30514303 -12.625 8.53125 C-12.64046875 7.54125 -12.64046875 7.54125 -12.65625 6.53125 C-10.94731775 0.0976227 -5.7219951 -0.06142496 0 0 Z " fill="#000000" transform="translate(296.125,109.46875)"/>
<path d="M0 0 C0.83208984 -0.00287018 1.66417969 -0.00574036 2.52148438 -0.00869751 C4.27995484 -0.01073812 6.03844801 -0.00520843 7.796875 0.00732422 C10.49009913 0.02337848 13.1818226 0.00747605 15.875 -0.01171875 C17.58333665 -0.00973632 19.29167236 -0.00589264 21 0 C22.20946289 -0.00910904 22.20946289 -0.00910904 23.44335938 -0.0184021 C29.07571612 0.05253115 29.07571612 0.05253115 31.20703125 1.79013062 C32.88543835 3.87787921 32.96414014 5.17782567 33 7.8359375 C33.0309375 8.59777344 33.061875 9.35960937 33.09375 10.14453125 C32.19164357 13.56897472 30.44352666 14.50850417 27.5 16.3984375 C24.77580887 16.78908179 22.46671617 16.96101265 19.75 16.9296875 C18.64640137 16.93542786 18.64640137 16.93542786 17.52050781 16.94128418 C15.97068914 16.94399653 14.42082416 16.93668269 12.87109375 16.91992188 C10.50676857 16.89849883 8.14548134 16.91974261 5.78125 16.9453125 C4.27082667 16.9426691 2.76040521 16.93754386 1.25 16.9296875 C0.5477832 16.93778442 -0.15443359 16.94588135 -0.87792969 16.95422363 C-5.6655541 16.86333775 -8.16148749 15.82628937 -11.5 12.3984375 C-12.09375 10.14453125 -12.09375 10.14453125 -12 7.8359375 C-11.9896875 7.07152344 -11.979375 6.30710938 -11.96875 5.51953125 C-10.59952826 -0.67619713 -5.28814255 -0.03982751 0 0 Z " fill="#000000" transform="translate(295.5,226.6015625)"/>
<path d="M0 0 C2.23654438 -0.00970091 4.47216746 -0.04073334 6.70849609 -0.07226562 C8.13687607 -0.07879678 9.5652626 -0.08404681 10.99365234 -0.08789062 C12.28899902 -0.09723633 13.5843457 -0.10658203 14.91894531 -0.11621094 C18.88381608 0.29253863 21.53989226 1.40366179 24.37646484 4.24023438 C24.57958984 6.20117188 24.57958984 6.20117188 24.62646484 8.61523438 C24.65224609 9.40671875 24.67802734 10.19820312 24.70458984 11.01367188 C24.29440306 13.79708222 23.53856563 14.49487175 21.37646484 16.24023438 C18.47022767 16.53858904 15.78277181 16.66056065 12.87646484 16.63867188 C12.044375 16.64154205 11.21228516 16.64441223 10.35498047 16.64736938 C8.59651 16.64941 6.83801683 16.6438803 5.07958984 16.63134766 C2.38636571 16.61529339 -0.30535775 16.63119583 -2.99853516 16.65039062 C-4.70687181 16.64840819 -6.41520752 16.64456451 -8.12353516 16.63867188 C-8.92984375 16.64474457 -9.73615234 16.65081726 -10.56689453 16.65707397 C-16.19745854 16.5861633 -16.19745854 16.5861633 -18.33496094 14.85073853 C-20.02845013 12.73415779 -20.02538509 11.4252277 -19.99853516 8.74023438 C-20.00626953 7.96679688 -20.01400391 7.19335938 -20.02197266 6.39648438 C-19.52919136 3.72966795 -18.75118025 2.87842121 -16.62353516 1.24023438 C-11.30896545 -0.53128886 -5.56605904 0.01463148 0 0 Z " fill="#000000" transform="translate(303.62353515625,167.759765625)"/>
<path d="M0 0 C0.66 -0.00128906 1.32 -0.00257813 2 -0.00390625 C4.89009057 0.81457643 6.09258282 2.27140555 8 4.5625 C8.80928355 8.35816948 8.60308629 12.19009026 8.5625 16.0625 C8.58634766 17.10792969 8.61019531 18.15335937 8.63476562 19.23046875 C8.62013071 26.85038324 8.62013071 26.85038324 5.65625 30.25390625 C2.43749541 31.83961623 0.54568921 32.09058137 -3 31.5625 C-6.1359157 29.78265595 -6.84102736 29.03941793 -8 25.5625 C-8.27741217 22.27564412 -8.27732266 18.98478974 -8.3125 15.6875 C-8.34150391 14.78902344 -8.37050781 13.89054688 -8.40039062 12.96484375 C-8.44113857 8.72078872 -8.37059408 6.21124416 -6.23046875 2.46484375 C-3.88556483 0.46489942 -3.02611938 -0.10047662 0 0 Z " fill="#000000" transform="translate(221,241.4375)"/>
<path d="M0 0 C0.66 -0.00128906 1.32 -0.00257813 2 -0.00390625 C4.89009057 0.81457643 6.09258282 2.27140555 8 4.5625 C8.80928355 8.35816948 8.60308629 12.19009026 8.5625 16.0625 C8.58634766 17.10792969 8.61019531 18.15335937 8.63476562 19.23046875 C8.62013071 26.85038324 8.62013071 26.85038324 5.65625 30.25390625 C2.43749541 31.83961623 0.54568921 32.09058137 -3 31.5625 C-6.1359157 29.78265595 -6.84102736 29.03941793 -8 25.5625 C-8.27741217 22.27564412 -8.27732266 18.98478974 -8.3125 15.6875 C-8.34150391 14.78902344 -8.37050781 13.89054688 -8.40039062 12.96484375 C-8.44113857 8.72078872 -8.37059408 6.21124416 -6.23046875 2.46484375 C-3.88556483 0.46489942 -3.02611938 -0.10047662 0 0 Z " fill="#000000" transform="translate(188,241.4375)"/>
<path d="M0 0 C2.62385144 2.02104319 3.83990232 3.22609387 4.51757812 6.50195312 C4.52208984 7.41912109 4.52660156 8.33628906 4.53125 9.28125 C4.53640625 10.28800781 4.5415625 11.29476563 4.546875 12.33203125 C4.53140625 13.37746094 4.5159375 14.42289062 4.5 15.5 C4.51546875 16.54542969 4.5309375 17.59085937 4.546875 18.66796875 C4.54171875 19.67472656 4.5365625 20.68148438 4.53125 21.71875 C4.52673828 22.63591797 4.52222656 23.55308594 4.51757812 24.49804688 C3.84061308 27.77047034 2.61208291 28.97149236 0 31 C-3.75349462 31.46918683 -6.03848453 31.53136381 -9.375 29.6875 C-13.05018771 25.87095892 -12.22024503 20.57920271 -12.25 15.625 C-12.270625 14.77421875 -12.29125 13.9234375 -12.3125 13.046875 C-12.34259558 8.2165344 -12.19785415 4.89641452 -9 1 C-5.90826248 -0.54586876 -3.40570448 -0.29359521 0 0 Z " fill="#000000" transform="translate(225,296)"/>
<path d="M0 0 C2.62385144 2.02104319 3.83990232 3.22609387 4.51757812 6.50195312 C4.52208984 7.41912109 4.52660156 8.33628906 4.53125 9.28125 C4.53640625 10.28800781 4.5415625 11.29476563 4.546875 12.33203125 C4.53140625 13.37746094 4.5159375 14.42289062 4.5 15.5 C4.51546875 16.54542969 4.5309375 17.59085937 4.546875 18.66796875 C4.54171875 19.67472656 4.5365625 20.68148438 4.53125 21.71875 C4.52673828 22.63591797 4.52222656 23.55308594 4.51757812 24.49804688 C3.84061308 27.77047034 2.61208291 28.97149236 0 31 C-3.75349462 31.46918683 -6.03848453 31.53136381 -9.375 29.6875 C-13.05018771 25.87095892 -12.22024503 20.57920271 -12.25 15.625 C-12.270625 14.77421875 -12.29125 13.9234375 -12.3125 13.046875 C-12.34259558 8.2165344 -12.19785415 4.89641452 -9 1 C-5.90826248 -0.54586876 -3.40570448 -0.29359521 0 0 Z " fill="#000000" transform="translate(192,296)"/>
</svg>
