<?xml version="1.0" encoding="UTF-8"?>
<svg version="1.1" xmlns="http://www.w3.org/2000/svg" width="512" height="512">
<path d="M0 0 C1.04072474 -0.00445784 2.08144947 -0.00891569 3.15371132 -0.01350862 C4.87443887 -0.01323207 4.87443887 -0.01323207 6.62992859 -0.01294994 C8.4536049 -0.01846498 8.4536049 -0.01846498 10.31412315 -0.02409142 C13.69519252 -0.03322103 17.07621333 -0.03782858 20.45729041 -0.04048073 C24.10166157 -0.04438327 27.74601867 -0.05396181 31.39038086 -0.0626936 C40.19608 -0.08246193 49.00178029 -0.09252578 57.80749607 -0.10142139 C61.9552372 -0.10580466 66.10297705 -0.11117146 70.25071716 -0.11641026 C84.04138423 -0.13342474 97.83205049 -0.14791774 111.62272644 -0.155159 C115.20203146 -0.15706887 118.78133648 -0.1589892 122.36064148 -0.16094494 C123.25025338 -0.16142868 124.13986527 -0.16191242 125.05643511 -0.16241082 C139.4595072 -0.17070664 153.86249611 -0.19603499 168.2655319 -0.22852562 C183.05641397 -0.26161871 197.84725382 -0.27960989 212.6381731 -0.28280324 C220.9411923 -0.28496651 229.24409029 -0.29368813 237.54707336 -0.31926441 C244.62034963 -0.34100238 251.69347527 -0.34900674 258.76678115 -0.33929763 C262.37325708 -0.33476152 265.97942242 -0.33659837 269.58585548 -0.35605907 C273.5034249 -0.3770152 277.42056966 -0.36667748 281.33818054 -0.35352612 C282.46748647 -0.36449536 283.59679239 -0.37546461 284.76031971 -0.38676625 C296.75078095 -0.28984637 307.13191772 3.71673492 315.92948914 11.94672108 C324.61242648 21.22848169 328.32829876 32.22323149 328.23249817 44.76495838 C328.23506144 46.01252784 328.23506144 46.01252784 328.2376765 47.28530073 C328.24095178 50.05208782 328.23000026 52.81862847 328.21903992 55.58539295 C328.21847538 57.57669538 328.2187932 59.56799823 328.21992493 61.55930042 C328.22049777 66.95125338 328.2087544 72.34311701 328.19477701 77.73504925 C328.18225837 83.37514128 328.18109826 89.01523546 328.1787262 94.65533924 C328.17251477 105.32946507 328.15610848 116.00354984 328.13602722 126.6776576 C328.11365775 138.83238243 328.10267215 150.98710923 328.09263635 163.14184952 C328.07174198 188.13932945 328.03657253 213.13677296 327.99198914 238.13422108 C329.42232735 238.12755924 329.42232735 238.12755924 330.88156128 238.12076283 C339.87155288 238.08020498 348.86152589 238.05023101 357.85158825 238.03059673 C362.47337853 238.0201632 367.0950949 238.00601181 371.71684265 237.98334217 C376.17776528 237.96159851 380.63861685 237.94964921 385.09958839 237.94446659 C386.80082124 237.94077358 388.50205023 237.93356206 390.20325279 237.92276096 C392.58758805 237.90822579 394.97163032 237.90624398 397.35600281 237.9071703 C398.05803329 237.89997974 398.76006378 237.89278919 399.48336792 237.88538074 C404.26715062 237.90546769 407.85434135 238.62307205 411.77923584 241.39766407 C413.53960313 243.91835659 413.38027505 245.86332365 413.39604187 248.91913319 C413.41506813 250.70129482 413.41506813 250.70129482 413.43447876 252.51945972 C413.4300753 254.44605175 413.4300753 254.44605175 413.42558289 256.41156483 C413.43082474 257.72959599 413.43606659 259.04762714 413.44146729 260.40559864 C413.45040185 263.19568923 413.44797198 265.98549365 413.43803406 268.7755785 C413.42654813 272.34810743 413.44674646 275.91964737 413.47595119 279.49204636 C413.4987298 282.90277161 413.491846 286.31326529 413.48808289 289.72406483 C413.49931686 291.00643528 413.51055084 292.28880573 413.52212524 293.6100359 C413.51274429 294.80129581 413.50336334 295.99255573 413.49369812 297.21991444 C413.49344887 298.79185818 413.49344887 298.79185818 413.49319458 300.39555836 C412.86269268 303.84071654 411.71478591 304.99646769 408.99198914 307.13422108 C405.42576902 308.32296112 402.20108263 308.26628745 398.49125671 308.24774647 C397.33098858 308.24792727 397.33098858 308.24792727 396.14728069 308.24811172 C393.64366466 308.24736539 391.1401231 308.23974986 388.63652039 308.23187733 C387.09074438 308.23040704 385.54496788 308.22938686 383.99919128 308.22882557 C378.26761631 308.22358271 372.53605199 308.20962152 366.80448914 308.19672108 C353.99636414 308.17609608 341.18823914 308.15547108 327.99198914 308.13422108 C327.99198914 352.68422108 327.99198914 397.23422108 327.99198914 443.13422108 C331.95198914 443.13422108 335.91198914 443.13422108 339.99198914 443.13422108 C350.05570842 444.49418314 358.09200573 449.06808585 364.52323914 456.98578358 C367.80170946 461.78141836 370.40945831 467.30891278 370.99198914 473.13422108 C371.08673523 474.04687733 371.08673523 474.04687733 371.18339539 474.97797108 C371.74762426 485.02488521 368.3791098 494.67466175 361.84355164 502.26703358 C354.46420762 509.70865054 346.55830996 512.45679662 336.18019831 512.54011339 C335.0469287 512.53410334 333.91365909 512.5280933 332.74604797 512.52190113 C330.91490513 512.52997944 330.91490513 512.52997944 329.0467695 512.53822094 C325.67490765 512.55001838 322.30354246 512.54844532 318.93170071 512.54105413 C315.28878444 512.53631342 311.64592057 512.5488403 308.00302124 512.55907154 C300.87260385 512.57624751 293.74227463 512.57710202 286.61184193 512.57185864 C280.814531 512.56781329 275.01724607 512.56926482 269.21993637 512.5746069 C268.39407451 512.57535532 267.56821265 512.57610374 266.71732467 512.57687484 C265.03945125 512.57840636 263.36157783 512.57994471 261.68370442 512.58148981 C245.9568485 512.59521062 230.23004236 512.58978021 214.50318758 512.5783046 C200.12561421 512.5683737 185.74816955 512.58131113 171.37061603 512.60523879 C156.59651896 512.62964054 141.82248181 512.63923495 127.048365 512.63258606 C118.75832143 512.6290961 110.46837684 512.63131113 102.17834854 512.64883709 C95.12088497 512.66357257 88.06359006 512.66417703 81.00612976 512.64676618 C77.4078562 512.63826461 73.80988376 512.6360856 70.21162605 512.65141773 C66.30489647 512.66785767 62.39862946 512.65309277 58.49189758 512.63542652 C57.36308941 512.64503153 56.23428125 512.65463653 55.07126677 512.6645326 C44.6327624 512.56756589 36.65216501 509.69412164 29.03886414 502.48578358 C22.24970658 494.68602623 19.86449513 487.00831814 19.87173462 476.85130787 C19.87088019 476.12833053 19.87002577 475.40535319 19.86914545 474.66046745 C19.86750149 472.24373427 19.87299425 469.82707088 19.87846375 467.41034412 C19.87874588 465.67563853 19.87858737 463.94093282 19.87802124 462.2062273 C19.87773428 457.50005144 19.88361469 452.79390106 19.8905952 448.08773112 C19.89684555 443.168318 19.89743387 438.24890429 19.89862061 433.3294878 C19.90172895 424.01524928 19.90993567 414.7010225 19.9199701 405.38678914 C19.93114662 394.78228163 19.93664557 384.17777356 19.94166553 373.57326162 C19.95211868 351.76024155 19.96970854 329.94723206 19.99198914 308.13422108 C18.68528259 308.14993153 17.37857605 308.16564198 16.03227234 308.1818285 C11.1775175 308.23618827 6.3227895 308.27059333 1.46781921 308.299016 C-0.63216173 308.3140888 -2.73211126 308.33455049 -4.83198547 308.36053944 C-7.8529791 308.39698861 -10.87355597 308.41396267 -13.89472961 308.42718983 C-14.83136948 308.44267368 -15.76800934 308.45815754 -16.73303223 308.4741106 C-21.66389318 308.47537949 -25.00957896 308.35775168 -29.00801086 305.13422108 C-31.71027544 302.4319565 -31.24465484 300.33633838 -31.2568512 296.66617298 C-31.24966064 295.75699116 -31.24247009 294.84780933 -31.23506165 293.91107655 C-31.2353537 292.95493458 -31.23564575 291.99879261 -31.23594666 291.01367664 C-31.23454962 287.84282936 -31.21897085 284.67221498 -31.20332336 281.50140858 C-31.19959456 279.30708412 -31.19674696 277.112758 -31.19474792 274.91843128 C-31.18710102 269.13484594 -31.16744345 263.35136058 -31.14533997 257.56781483 C-31.12490429 251.66939109 -31.11575109 245.77095124 -31.10566711 239.87250233 C-31.08419856 228.29303124 -31.05004988 216.71363446 -31.00801086 205.13422108 C-31.86032288 205.16040516 -32.71263489 205.18658924 -33.59077454 205.21356678 C-36.76828213 205.299036 -39.94520197 205.36158897 -43.12348938 205.40887928 C-44.49608188 205.43394725 -45.86854188 205.4680119 -47.24067688 205.51141834 C-49.21851783 205.57239639 -51.1973527 205.59783117 -53.17597961 205.62250233 C-54.9591156 205.66177845 -54.9591156 205.66177845 -56.77827454 205.70184803 C-61.02743418 204.95505718 -62.4557627 203.56650202 -65.00801086 200.13422108 C-65.62947083 197.31999683 -65.62947083 197.31999683 -65.62324524 194.21405506 C-65.63255066 193.04611912 -65.64185608 191.87818317 -65.65144348 190.67485523 C-65.63504822 189.4226569 -65.61865295 188.17045856 -65.60176086 186.88031483 C-65.60180115 185.58730961 -65.60184143 184.29430439 -65.60188293 182.9621172 C-65.60023288 180.23081854 -65.58159345 177.50034387 -65.55000305 174.76923084 C-65.51028544 171.27306285 -65.50596392 167.77797089 -65.51346588 164.28162003 C-65.51727722 160.93938771 -65.49645499 157.59749393 -65.47676086 154.25531483 C-65.47655945 153.00109226 -65.47635803 151.7468697 -65.47615051 150.45464039 C-65.46023865 149.28985661 -65.44432678 148.12507282 -65.42793274 146.92499256 C-65.41951355 145.90082737 -65.41109436 144.87666218 -65.40242004 143.82146168 C-64.94795513 140.7250414 -64.18151222 139.35916921 -62.00801086 137.13422108 C-58.6506595 136.01510395 -56.12595701 136.02056521 -52.59004211 136.03656483 C-51.33642883 136.03978748 -50.08281555 136.04301014 -48.79121399 136.04633045 C-46.82571594 136.05889881 -46.82571594 136.05889881 -44.82051086 136.07172108 C-43.48522605 136.0767379 -42.14993945 136.08130049 -40.81465149 136.08539295 C-37.54572613 136.09719413 -34.27689095 136.1136581 -31.00801086 136.13422108 C-31.01169804 135.57652845 -31.01538521 135.01883583 -31.01918411 134.44424343 C-31.10774397 120.83811623 -31.17356574 107.23203993 -31.21525955 93.62568569 C-31.23610272 87.04557623 -31.26436123 80.46567536 -31.30976868 73.88568592 C-31.35334213 67.53144127 -31.37717256 61.17739682 -31.38751984 54.82301426 C-31.3948905 52.40300185 -31.40928358 49.98299997 -31.43093109 47.56307316 C-31.460117 44.16418804 -31.4639604 40.7661222 -31.46211243 37.36713123 C-31.47649353 36.37450275 -31.49087463 35.38187428 -31.50569153 34.35916615 C-31.4433397 23.70796616 -27.81086606 16.01065469 -20.52363586 8.33734608 C-14.73494556 3.26774773 -7.71902009 0.01531977 0 0 Z M-10.32051086 24.69672108 C-12.63579553 28.04102115 -13.13295967 30.55248331 -13.12826538 34.51915455 C-13.12964005 35.41517887 -13.13101471 36.31120319 -13.13243103 37.23437977 C-13.12883575 38.21477222 -13.12524048 39.19516468 -13.12153625 40.205266 C-13.12168228 41.23958256 -13.12182831 42.27389912 -13.12197876 43.3395586 C-13.12128107 46.76462354 -13.11349532 50.18963437 -13.10566711 53.61468983 C-13.10380243 55.98694803 -13.10237876 58.35920662 -13.10137939 60.73146534 C-13.09755822 66.98025033 -13.08773132 73.22901215 -13.07667542 79.47778797 C-13.06645272 85.85219477 -13.06187993 92.22660532 -13.05683899 98.60101795 C-13.04610872 111.11209749 -13.02851512 123.62315373 -13.00801086 136.13422108 C-2.11801086 136.13422108 8.77198914 136.13422108 19.99198914 136.13422108 C20.08242938 122.58209776 20.15578583 109.03017554 20.19923782 95.47781849 C20.22009467 89.1846236 20.24837823 82.89164625 20.29374695 76.59857655 C20.33727154 70.52314591 20.36114056 64.44792427 20.37149811 58.37234974 C20.37887752 56.05674418 20.39328778 53.7411498 20.41490936 51.42563343 C20.44403038 48.17720467 20.44794138 44.92963479 20.4460907 41.68109608 C20.4604718 40.72803074 20.47485291 39.7749654 20.4896698 38.79301929 C20.45252866 32.75115549 19.44644383 28.17056325 15.99198914 23.13422108 C11.11082398 18.49116154 7.02498307 17.77694094 0.49589539 17.85297108 C-4.43440483 18.40676455 -7.12021849 21.15045115 -10.32051086 24.69672108 Z M33.99198914 18.13422108 C34.20392577 18.79457713 34.41586241 19.45493319 34.63422137 20.13530004 C37.36402842 28.87853102 37.36402842 28.87853102 37.39071655 33.4368639 C37.40324557 34.35746412 37.41577459 35.27806435 37.42868328 36.22656155 C37.42725732 37.20236361 37.42583136 38.17816566 37.42436218 39.18353748 C37.43463597 40.25525888 37.44490976 41.32698029 37.45549488 42.43117809 C37.48514695 45.86610557 37.49488791 49.30074634 37.50370789 52.73578358 C37.51919051 54.8701523 37.53599031 57.00451189 37.55412292 59.13885975 C37.61184297 67.01221285 37.64415485 74.88573569 37.67948914 82.75922108 C37.78261414 100.37297108 37.88573914 117.98672108 37.99198914 136.13422108 C85.51198914 136.13422108 133.03198914 136.13422108 181.99198914 136.13422108 C182.32198914 132.50422108 182.65198914 128.87422108 182.99198914 125.13422108 C185.4370205 121.57146109 186.69528173 120.38252675 190.92948914 119.57172108 C197.23188658 120.72930428 201.97748135 125.69963857 206.67948914 129.82172108 C207.92082665 130.89822283 209.16302285 131.97373517 210.40605164 133.04828358 C211.31919128 133.83767323 211.31919128 133.83767323 212.2507782 134.64301014 C215.52086405 137.44358282 218.87266378 140.14305086 222.21464539 142.85687733 C225.89028661 145.87079974 229.51076874 148.94742261 233.12992859 152.02875233 C237.67086396 155.88653813 242.29022879 159.63700508 246.94511414 163.35687733 C249.92225486 165.94198998 249.96541639 166.87928058 250.38652039 170.91937733 C250.33331783 174.43948069 250.05541224 175.05286684 247.75370789 178.00531483 C246.74917696 178.88442552 245.72291086 179.73914129 244.67948914 180.57172108 C244.13477966 181.03707264 243.59007019 181.5024242 243.02885437 181.98187733 C241.3685291 183.39037577 239.68437032 184.76450984 237.99198914 186.13422108 C237.07159851 186.89863514 236.15120789 187.6630492 235.20292664 188.45062733 C233.42345631 189.91777174 231.63551148 191.37469228 229.83964539 192.82172108 C226.68576748 195.38289491 223.58625095 198.00168754 220.49198914 200.63422108 C215.53030029 204.84615989 210.55235948 209.03466904 205.48417664 213.11859608 C203.90585518 214.39510684 202.34574643 215.69476134 200.81230164 217.02484608 C197.46725455 219.81021602 195.11845254 221.49701675 190.67948914 221.63422108 C186.99198914 221.13422108 186.99198914 221.13422108 183.99198914 219.13422108 C182.99198914 216.13422108 182.99198914 216.13422108 181.99198914 205.13422108 C134.47198914 205.13422108 86.95198914 205.13422108 37.99198914 205.13422108 C37.87546218 254.1957308 37.87546218 254.1957308 37.79667664 303.25726795 C37.78884513 309.87046822 37.78076319 316.48366811 37.77226257 323.09686756 C37.77068008 324.34015569 37.77068008 324.34015569 37.76906562 325.60856074 C37.75166758 338.9904935 37.72013188 352.37235752 37.68337795 365.75424952 C37.64597402 379.48731974 37.62375445 393.22035397 37.61563516 406.95347303 C37.61014624 415.42781433 37.59280899 423.90196141 37.56032327 432.37624293 C37.53918214 438.18709807 37.53278817 443.99785279 37.53798363 449.8087436 C37.54054612 453.16163579 37.53442863 456.5139149 37.51516724 459.86679363 C37.49529675 463.50361695 37.50004032 467.13960605 37.51097107 470.77644825 C37.4993197 471.83385104 37.48766834 472.89125383 37.4756639 473.98069912 C37.52673119 480.25711602 38.27713513 484.01876222 41.99198914 489.13422108 C47.16185377 493.81171765 50.38699814 494.48703471 57.23027039 494.41547108 C62.35654333 493.89341782 64.9773186 491.25858572 68.30448914 487.57172108 C71.19207222 483.40076774 71.15149606 479.65027315 71.20292664 474.76312733 C71.23098982 473.28720468 71.25965424 471.81129335 71.28886414 470.33539295 C71.33014305 468.01369957 71.36704016 465.69221906 71.39335632 463.37030506 C71.42098681 461.12580474 71.46684699 458.88225897 71.51542664 456.63812733 C71.5186795 455.94634892 71.52193237 455.2545705 71.52528381 454.54182911 C71.62840873 450.49127691 72.02050426 447.99061015 74.99198914 445.13422108 C79.03535649 443.78643196 82.94320629 443.9806168 87.16036987 443.97600269 C88.58529101 443.96859573 88.58529101 443.96859573 90.03899843 443.96103913 C93.23581058 443.94562837 96.43260259 443.93729381 99.62944031 443.92889881 C101.91556985 443.9193231 104.20169761 443.9093132 106.48782349 443.89890003 C112.70644441 443.87181165 118.92507295 443.85082339 125.14372039 443.83089805 C131.63802343 443.80906273 138.13230289 443.78166205 144.62658691 443.7548418 C155.53084806 443.7105631 166.43511716 443.66973347 177.33940125 443.63153553 C188.57150722 443.5921798 199.80360234 443.55074207 211.03569031 443.50653553 C212.08457537 443.50241127 212.08457537 443.50241127 213.15465003 443.49820369 C219.23705324 443.47426934 225.31945581 443.45017707 231.40185833 443.42606926 C257.59854772 443.32244264 283.79526361 443.229188 309.99198914 443.13422108 C309.99198914 398.58422108 309.99198914 354.03422108 309.99198914 308.13422108 C262.47198914 308.13422108 214.95198914 308.13422108 165.99198914 308.13422108 C165.66198914 311.76422108 165.33198914 315.39422108 164.99198914 319.13422108 C161.99198914 323.13422108 161.99198914 323.13422108 158.74198914 324.13422108 C151.30484472 324.13422108 146.01745949 318.68509291 140.74198914 313.94672108 C139.41751358 312.77756712 138.09198667 311.60960313 136.76542664 310.44281483 C136.12186218 309.87546619 135.47829773 309.30811756 134.81523132 308.72357655 C131.52618657 305.85645264 128.12843738 303.12584707 124.73808289 300.38031483 C121.04433913 297.35911617 117.415495 294.26403844 113.78349304 291.16913319 C109.54479739 287.56974757 105.2140661 284.10167111 100.82011414 280.69281483 C97.9722219 278.26480414 97.99565533 277.17149402 97.61698914 273.32172108 C97.46855164 271.30218983 97.46855164 271.30218983 97.99198914 269.13422108 C101.62373929 264.99047607 105.9444772 261.47695102 110.11698914 257.88422108 C110.78005066 257.31139393 111.44311218 256.73856678 112.12626648 256.14838123 C116.77186022 252.14897489 121.48193665 248.23820117 126.24589539 244.38031483 C128.81352867 242.28018803 131.34946911 240.1488138 133.8757782 237.99945545 C135.52921616 236.5932156 137.18773357 235.19318861 138.84745789 233.79437733 C140.8454176 232.11044357 142.82274976 230.41005735 144.79277039 228.69281483 C152.9440409 221.77845942 152.9440409 221.77845942 158.99198914 222.13422108 C161.93954645 223.47984507 163.53476186 224.21976652 164.99198914 227.13422108 C165.32198914 230.76422108 165.65198914 234.39422108 165.99198914 238.13422108 C213.51198914 238.13422108 261.03198914 238.13422108 309.99198914 238.13422108 C310.07938251 202.78266862 310.07938251 202.78266862 310.13847351 167.43109608 C310.15627935 153.01634999 310.17721992 138.60165649 310.2183075 124.18695545 C310.24821612 113.68914326 310.26756565 103.19137369 310.27425462 92.69352007 C310.27816437 87.13537507 310.28734868 81.57735201 310.30917931 76.0192461 C310.32956746 70.78590912 310.33581817 65.55274414 310.33131218 60.31937122 C310.33213633 58.40055373 310.33808803 56.48173038 310.34960556 54.56294727 C310.36458614 51.93809868 310.36092254 49.31389494 310.35275269 46.68903065 C310.36149121 45.93414372 310.37022973 45.17925679 310.37923306 44.4014945 C310.32124109 37.48294277 308.50008981 31.21116775 303.86698914 25.88422108 C303.34878601 25.26031483 302.83058289 24.63640858 302.29667664 23.99359608 C295.54180727 18.54390486 288.60066895 17.55212343 280.15298462 17.65320301 C279.09582184 17.64978531 278.03865906 17.64636761 276.94946104 17.64284635 C273.42551485 17.63628507 269.90233916 17.65821545 266.37846375 17.68011951 C263.84514891 17.68124837 261.31183276 17.6806134 258.77851868 17.67834949 C253.33393581 17.67744015 247.88959876 17.68874692 242.44506645 17.71130085 C234.57336352 17.74388799 226.70175317 17.7542347 218.8299901 17.75925282 C206.05687001 17.76799498 193.28385243 17.79458116 180.51078796 17.83246326 C168.10714733 17.86921135 155.70353459 17.89750939 143.29985046 17.91449451 C142.15191044 17.91607086 142.15191044 17.91607086 140.9807797 17.91767904 C137.14130927 17.92289941 133.30183865 17.92795419 129.46236789 17.93292665 C97.63883314 17.97435507 65.8154271 18.04507253 33.99198914 18.13422108 Z M199.99198914 148.13422108 C199.72386414 148.77359608 199.45573914 149.41297108 199.17948914 150.07172108 C197.99198914 152.13422108 197.99198914 152.13422108 194.99198914 153.13422108 C193.61154394 153.22791752 192.22705421 153.26787578 190.84344196 153.27288628 C189.99448709 153.27836072 189.14553221 153.28383516 188.27085143 153.2894755 C187.33798047 153.29045361 186.40510951 153.29143171 185.44396973 153.29243946 C184.45318678 153.29737744 183.46240384 153.30231542 182.44159716 153.30740303 C179.10658959 153.32281662 175.77160131 153.33114911 172.43656921 153.33954334 C170.05191883 153.34911883 167.66727016 153.35912871 165.28262329 153.36954212 C159.46971039 153.39381705 153.65679473 153.4135465 147.84385852 153.43129487 C141.08088693 153.45218746 134.31794065 153.47864965 127.55499037 153.50546633 C115.49404485 153.55314267 103.43308769 153.59640675 91.37211609 153.63690662 C79.65498448 153.67626133 67.93786321 153.7176875 56.2207489 153.76190662 C55.13765176 153.76599303 55.13765176 153.76599303 54.03267387 153.77016199 C50.4103404 153.78384147 46.78800709 153.79756174 43.16567385 153.8113023 C13.10780033 153.92526774 -16.95009564 154.03180543 -47.00801086 154.13422108 C-47.00801086 165.02422108 -47.00801086 175.91422108 -47.00801086 187.13422108 C-42.51455803 187.14302044 -42.51455803 187.14302044 -37.93032837 187.15199757 C-10.46669795 187.20716052 16.9968583 187.27710949 44.46040736 187.36320736 C48.05906904 187.37447567 51.6577311 187.3856141 55.25639343 187.39667225 C55.97282943 187.39887593 56.68926542 187.40107962 57.42741159 187.40335008 C69.03143746 187.43873305 80.63546325 187.46359153 92.23952308 187.4845681 C104.14427108 187.5063222 116.04894901 187.53936888 127.95363742 187.58292264 C134.64120181 187.60706472 141.32870956 187.62559854 148.01631737 187.63183498 C154.30767046 187.63786626 160.59882469 187.65779528 166.89010429 187.68849659 C169.2020098 187.69730824 171.51394126 187.70099297 173.82586288 187.69922924 C176.97726979 187.69758381 180.1280652 187.71421379 183.27938843 187.73549366 C184.19865181 187.73064608 185.1179152 187.72579851 186.06503505 187.72080404 C191.9597225 187.78669685 195.38600833 188.70796308 199.80448914 192.82172108 C200.19636414 193.25484608 200.58823914 193.68797108 200.99198914 194.13422108 C201.58624695 193.58894764 202.18050476 193.0436742 202.79277039 192.48187733 C209.02488471 186.81191329 215.44320397 181.43269045 221.99198914 176.13422108 C223.99877835 174.47543 225.99626243 172.80631642 227.99198914 171.13422108 C224.22556768 167.26849661 220.2857342 163.69741895 216.17948914 160.19672108 C215.56436462 159.67110584 214.94924011 159.14549061 214.31547546 158.60394764 C207.64210011 151.94929503 207.64210011 151.94929503 199.99198914 148.13422108 Z M-13.00801086 205.13422108 C-13.00801086 233.18422108 -13.00801086 261.23422108 -13.00801086 290.13422108 C-2.11801086 290.13422108 8.77198914 290.13422108 19.99198914 290.13422108 C19.99198914 262.08422108 19.99198914 234.03422108 19.99198914 205.13422108 C9.10198914 205.13422108 -1.78801086 205.13422108 -13.00801086 205.13422108 Z M146.99198914 250.13422108 C146.03679382 250.96824451 145.08159851 251.80226795 144.09745789 252.66156483 C136.49614436 259.28301768 128.84720962 265.81411645 120.99198914 272.13422108 C122.57777985 276.51601121 126.01814577 279.00369624 129.49198914 281.88422108 C130.11621765 282.40919178 130.74044617 282.93416248 131.3835907 283.47504139 C133.24648359 285.03620483 135.11799931 286.58640678 136.99198914 288.13422108 C137.52114929 288.57508045 138.05030945 289.01593983 138.59550476 289.47015858 C143.2677256 294.05160772 143.2677256 294.05160772 148.99198914 296.13422108 C149.28073914 295.49484608 149.56948914 294.85547108 149.86698914 294.19672108 C150.99198914 292.13422108 150.99198914 292.13422108 152.99198914 291.13422108 C154.33109785 291.0370593 155.6748683 291.00041541 157.01748848 290.99555588 C157.86445231 290.99008143 158.71141613 290.98460699 159.58404553 290.97896665 C160.51982933 290.97798855 161.45561314 290.97701044 162.41975403 290.97600269 C163.40968255 290.97106472 164.39961107 290.96612674 165.41953743 290.96103913 C168.75765107 290.94560352 172.0957454 290.93728714 175.43388367 290.92889881 C177.81838655 290.91932505 180.20288772 290.90931527 182.58738708 290.89890003 C188.40377919 290.8746095 194.22017404 290.8548869 200.03658952 290.83714729 C206.80282388 290.81626667 213.56903285 290.78980091 220.33524583 290.76297582 C232.40229219 290.71528402 244.46935022 290.67202415 256.53642273 290.63153553 C268.26039031 290.59218868 279.98434751 290.5507644 291.70829773 290.50653553 C292.43062521 290.50381126 293.1529527 290.50108699 293.89716889 290.49828016 C297.52077299 290.48460082 301.14437694 290.47088052 304.76798081 290.45713985 C334.8426288 290.34315013 364.91729931 290.23661871 394.99198914 290.13422108 C394.99198914 278.91422108 394.99198914 267.69422108 394.99198914 256.13422108 C391.97351837 256.13279606 388.95504761 256.13137104 385.84510803 256.12990284 C358.16675276 256.11452601 330.48854443 256.07443 302.8102717 256.00736545 C299.18285634 255.99859868 295.55544049 255.99004887 291.92802429 255.98163319 C290.84479192 255.97911459 290.84479192 255.97911459 289.73967607 255.97654512 C278.04577587 255.94987341 266.35192468 255.94077992 254.65799718 255.93817965 C242.65942795 255.93512047 230.66100047 255.913178 218.66249526 255.87369651 C211.92286357 255.85206153 205.18344949 255.8391631 198.44378281 255.84806728 C192.10225828 255.85559025 185.76121992 255.83985518 179.41978455 255.80616093 C177.0905615 255.79790661 174.7612903 255.79820232 172.43207169 255.80762386 C169.2543956 255.81920639 166.07832326 255.80018596 162.90077209 255.77345753 C161.51457344 255.78946742 161.51457344 255.78946742 160.10037076 255.80580074 C155.66643899 255.73610364 152.86108284 255.47537354 149.3726902 252.5942688 C148.58705885 251.78245305 147.8014275 250.9706373 146.99198914 250.13422108 Z M88.99198914 461.13422108 C88.9721698 461.81412098 88.95235046 462.49402088 88.93193054 463.19452381 C88.83577632 466.32059849 88.72646848 469.44608581 88.61698914 472.57172108 C88.58605164 473.64099842 88.55511414 474.71027576 88.52323914 475.81195545 C88.28979086 482.17342102 87.58688337 487.96859338 85.99198914 494.13422108 C118.35830894 494.22547725 150.72459166 494.29626273 183.09101075 494.33848239 C186.91241457 494.3434852 190.73381812 494.34866249 194.55522156 494.35394764 C195.69637745 494.3555215 195.69637745 494.3555215 196.86058699 494.35712716 C209.17786387 494.374531 221.49506604 494.40606857 233.8122986 494.44283226 C246.45151644 494.48024228 259.09069517 494.50245705 271.7299661 494.51057506 C279.52870654 494.51606272 287.32723584 494.53339307 295.12591129 494.56588694 C301.10660641 494.58953623 307.08712001 494.59204077 313.06786728 494.5866518 C315.520865 494.5877532 317.97387063 494.5957224 320.42682076 494.61104298 C323.7746491 494.63092897 327.12157232 494.62616446 330.46942139 494.61523914 C331.92712427 494.63271619 331.92712427 494.63271619 333.41427571 494.65054631 C339.47411968 494.59705307 343.03516146 493.68399755 347.99198914 490.13422108 C351.64554615 485.90378663 353.24384996 481.72763029 352.99198914 476.13422108 C352.13704156 471.68684956 350.57174727 468.3033264 347.17948914 465.25922108 C340.83471945 461.02937462 335.20356355 460.84848343 327.81745911 460.89371204 C326.28456248 460.89114877 326.28456248 460.89114877 324.72069824 460.88853371 C321.29819901 460.88524085 317.87589607 460.89623933 314.45341492 460.9071703 C311.99935918 460.90773445 309.5453031 460.90741776 307.09124756 460.90628529 C301.80874739 460.90582992 296.52630826 460.91150085 291.24382401 460.92276096 C283.6062938 460.93903047 275.96878748 460.94422545 268.33124183 460.94673695 C255.93917269 460.95111177 243.54712991 460.96441512 231.15507507 460.98334217 C219.1189436 461.00170646 207.08281929 461.01586028 195.04667664 461.0243578 C194.30449108 461.02488324 193.56230552 461.02540869 192.79762949 461.02595006 C189.0742196 461.02856018 185.35080966 461.03108758 181.62739968 461.03357387 C150.74891033 461.05429975 119.87045374 461.08966841 88.99198914 461.13422108 Z " fill="#FFFFFF" transform="translate(82.00801086425781,-0.13422107696533203)"/>
<path d="M0 0 C56.76 0 113.52 0 172 0 C172 5.94 172 11.88 172 18 C115.24 18 58.48 18 0 18 C0 12.06 0 6.12 0 0 Z " fill="#FFFFFF" transform="translate(187,409)"/>
<path d="M0 0 C56.76 0 113.52 0 172 0 C172 5.94 172 11.88 172 18 C115.24 18 58.48 18 0 18 C0 12.06 0 6.12 0 0 Z " fill="#FFFFFF" transform="translate(187,375)"/>
<path d="M0 0 C28.38 0 56.76 0 86 0 C86 5.94 86 11.88 86 18 C57.62 18 29.24 18 0 18 C0 12.06 0 6.12 0 0 Z " fill="#FFFFFF" transform="translate(153,85)"/>
<path d="M0 0 C28.38 0 56.76 0 86 0 C86 5.94 86 11.88 86 18 C57.62 18 29.24 18 0 18 C0 12.06 0 6.12 0 0 Z " fill="#FFFFFF" transform="translate(153,51)"/>
<path d="M0 0 C17.16 0 34.32 0 52 0 C52 5.94 52 11.88 52 18 C34.84 18 17.68 18 0 18 C0 12.06 0 6.12 0 0 Z " fill="#FFFFFF" transform="translate(307,341)"/>
</svg>
