<?xml version="1.0" encoding="UTF-8"?>
<svg version="1.1" xmlns="http://www.w3.org/2000/svg" width="512" height="512">
<path d="M0 0 C0.69729218 0.27511917 1.39458435 0.55023834 2.11300659 0.83369446 C4.2932047 1.69978735 6.46355835 2.58735875 8.6328125 3.48046875 C9.29075806 3.74809021 9.94870361 4.01571167 10.62658691 4.29144287 C14.62642547 5.91903206 18.61164523 7.57976383 22.59140015 9.25579834 C26.48656159 10.89586054 30.38621259 12.52520485 34.28515625 14.15625 C35.1144313 14.50345093 35.94370636 14.85065186 36.79811096 15.20837402 C46.95769949 19.45907666 57.13949803 23.655928 67.3203125 27.85546875 C71.2514113 29.47760002 75.18238373 31.10003727 79.11328125 32.72265625 C80.08227356 33.12263321 81.05126587 33.52261017 82.04962158 33.93470764 C91.74847264 37.93923074 101.44107852 41.9587585 111.1328125 45.98046875 C124.65454166 51.59118978 138.18160376 57.18883135 151.71340942 62.77520752 C195.84214559 80.99353965 195.84214559 80.99353965 212.09797668 87.76672363 C216.6276314 89.65248227 221.16559994 91.51565865 225.7109375 93.36328125 C227.62256907 94.15192395 229.53404689 94.94093955 231.4453125 95.73046875 C232.25685791 96.05289551 233.06840332 96.37532227 233.90454102 96.70751953 C234.62569092 97.00899902 235.34684082 97.31047852 236.08984375 97.62109375 C236.68772705 97.86375977 237.28561035 98.10642578 237.90161133 98.35644531 C240.63984459 100.13430823 241.89033451 101.65990075 243.6328125 104.48046875 C244.23277867 108.12097712 244.16788976 111.72969588 244.13401794 115.41223145 C244.13955234 116.52778553 244.14508674 117.64333962 244.15078884 118.79269838 C244.16442444 122.53845642 244.14940954 126.28355153 244.13452148 130.02929688 C244.1383036 132.71156144 244.14364996 135.39378139 244.15089417 138.07603455 C244.16483057 144.60965764 244.15726759 151.14308753 244.14221858 157.67670143 C244.12536216 165.28447852 244.12856828 172.89220744 244.13231266 180.49999744 C244.13819198 194.07376782 244.12401691 207.64744546 244.09936523 221.22119141 C244.07544424 234.39407834 244.06836088 247.56684134 244.07885742 260.73974609 C244.0902655 275.08231047 244.09219806 289.42481751 244.07775933 303.76738119 C244.07623348 305.29661655 244.07471312 306.82585191 244.07319832 308.35508728 C244.0724405 309.10751088 244.07168269 309.85993449 244.07090191 310.63515881 C244.06615823 315.93883381 244.06801112 321.24248322 244.07226372 326.54615784 C244.07718929 333.00911352 244.07121096 339.47195201 244.05136942 345.93488085 C244.04149445 349.23273583 244.03800178 352.53037571 244.04426193 355.82824516 C244.050196 359.40192445 244.0377449 362.97507452 244.02049255 366.54870605 C244.02950762 368.11508717 244.02950762 368.11508717 244.03870481 369.71311235 C243.96141147 378.48504055 243.96141147 378.48504055 240.6328125 382.48046875 C238.04351236 384.51491886 236.8074018 384.49516386 233.49438477 384.21630859 C229.21073115 383.40003926 225.58681104 382.04218708 221.59765625 380.33203125 C220.82329727 380.00806366 220.04893829 379.68409607 219.25111389 379.35031128 C216.68768387 378.27606109 214.12913729 377.19063718 211.5703125 376.10546875 C209.74713225 375.3395718 207.92355584 374.57461732 206.09960938 373.81054688 C202.24604105 372.19585408 198.39390111 370.57781596 194.54248047 368.95800781 C185.88472694 365.32231166 177.20176559 361.74775113 168.51980591 358.17034912 C163.67107571 356.17193483 158.82379408 354.17001471 153.9765625 352.16796875 C153.02318497 351.77423065 152.06980743 351.38049255 151.08753967 350.974823 C140.59440958 346.64016752 130.10789426 342.2895927 119.62158203 337.93847656 C104.99769189 331.87096693 90.365565 325.82354802 75.73071289 319.78253174 C64.36352843 315.09017449 52.99820113 310.39344742 41.640625 305.6778717 C37.25836823 303.8584279 32.87503804 302.04172486 28.48828125 300.2331543 C21.46547378 297.3353768 14.45546012 294.42587644 7.5078125 291.3515625 C5.98027344 290.68761475 5.98027344 290.68761475 4.421875 290.01025391 C2.6575156 289.24019999 0.90098314 288.45172734 -0.84375 287.63818359 C-6.6355139 285.13662921 -10.4412484 285.51899213 -16.3671875 287.48046875 C-17.06473145 287.69388916 -17.76227539 287.90730957 -18.48095703 288.12719727 C-20.47674606 288.7536493 -22.45320652 289.42076638 -24.4296875 290.10546875 C-25.10451172 290.33492188 -25.77933594 290.564375 -26.47460938 290.80078125 C-28.10691099 291.35645839 -29.73727033 291.91783595 -31.3671875 292.48046875 C-24.53667301 295.99331301 -17.62363199 299.17400109 -10.546875 302.15625 C-9.51460281 302.59447083 -8.48233063 303.03269165 -7.41877747 303.48419189 C-5.19141771 304.42939996 -2.9634576 305.3731943 -0.73495483 306.31570435 C4.67691563 308.60465257 10.08517948 310.90209313 15.49370003 313.19894218 C17.38414884 314.00163701 19.27476085 314.80394652 21.16539001 315.60621643 C35.96254292 321.8869369 50.73298722 328.2297342 65.50436401 334.57080078 C76.76350707 339.40357877 88.02244905 344.23586689 99.3125 348.99609375 C100.10410019 349.33015732 100.89570038 349.66422089 101.71128845 350.00840759 C105.24257933 351.49799407 108.77545259 352.9835623 112.31176758 354.46118164 C113.49407959 354.9586792 114.6763916 355.45617676 115.89453125 355.96875 C116.89444092 356.38680908 117.89435059 356.80486816 118.92456055 357.2355957 C121.63286617 358.48049342 124.08918096 359.93089723 126.6328125 361.48046875 C128.42539744 362.39517992 130.22969537 363.2871746 132.04296875 364.16015625 C133.10040283 364.6698999 134.15783691 365.17964355 135.24731445 365.70483398 C136.38515381 366.24954346 137.52299316 366.79425293 138.6953125 367.35546875 C139.5827565 367.78147873 139.5827565 367.78147873 140.48812866 368.21609497 C152.9487882 374.1970369 165.48445397 380.01368505 178.03076172 385.8125 C185.43884793 389.24289481 192.83406229 392.70093869 200.22998047 396.1574707 C201.47752474 396.74042779 202.72508338 397.32335411 203.97265625 397.90625 C204.59293701 398.19607254 205.21321777 398.48589508 205.85229492 398.78450012 C209.85064581 400.65153987 213.85235899 402.51119539 217.85632324 404.36616516 C220.6013178 405.6380967 223.34527588 406.91225563 226.08917236 408.18655396 C227.39249257 408.79107466 228.69631265 409.39451903 230.00067139 409.99679565 C248.06113783 418.33711941 248.06113783 418.33711941 249.6328125 421.48046875 C250.19192237 427.16475248 250.19192237 427.16475248 249.6328125 429.48046875 C246.14851088 433.49269486 242.55941816 435.80594494 237.75390625 437.90625 C237.08282333 438.21042847 236.41174042 438.51460693 235.72032166 438.82800293 C233.5083823 439.82723956 231.2895455 440.81005064 229.0703125 441.79296875 C227.49582322 442.50058291 225.92177499 443.20917917 224.34814453 443.91870117 C219.45023684 446.12225901 214.5427026 448.30376448 209.6328125 450.48046875 C208.8784491 450.8151416 208.12408569 451.14981445 207.34686279 451.49462891 C201.4942262 454.09087142 195.64146908 456.68687508 189.78536987 459.27529907 C177.50259854 464.70591297 165.30562985 470.30811266 153.1328125 475.98046875 C135.78622847 484.06334099 118.34414248 491.90851464 100.83251953 499.62646484 C93.42476574 502.89339559 86.02976141 506.18916826 78.6328125 509.48046875 C77.76729827 507.79580712 76.90184792 506.1111126 76.03686523 504.42617798 C75.36930586 503.127903 74.69829245 501.83140269 74.02539062 500.53588867 C72.56578015 497.65514385 71.6328125 495.75134152 71.6328125 492.48046875 C91.2331338 483.3308541 110.83874661 474.20474685 130.6328125 465.48046875 C143.72342979 459.71031188 156.72634598 453.76899964 169.6953125 447.73046875 C181.62205892 442.17959213 193.55632756 436.65294072 205.5703125 431.29296875 C206.68349854 430.7937793 207.79668457 430.29458984 208.94360352 429.78027344 C210.44298462 429.11560059 210.44298462 429.11560059 211.97265625 428.4375 C212.83238037 428.0556958 213.69210449 427.6738916 214.57788086 427.28051758 C216.6328125 426.48046875 216.6328125 426.48046875 218.6328125 426.48046875 C218.6328125 425.82046875 218.6328125 425.16046875 218.6328125 424.48046875 C217.32280273 424.0642627 217.32280273 424.0642627 215.98632812 423.63964844 C212.87013299 422.5625012 209.9605805 421.33051879 206.9765625 419.93359375 C205.88730469 419.42570312 204.79804688 418.9178125 203.67578125 418.39453125 C201.92201172 417.57082031 201.92201172 417.57082031 200.1328125 416.73046875 C198.88946772 416.14942962 197.64597502 415.56870693 196.40234375 414.98828125 C193.79474623 413.77063879 191.18802982 412.55113886 188.58203125 411.33007812 C184.7569288 409.53797293 180.92962597 407.75061385 177.1015625 405.96484375 C176.48431305 405.67688934 175.8670636 405.38893494 175.23110962 405.09225464 C173.98604804 404.51142375 172.74098172 403.93060301 171.49591064 403.34979248 C169.63561013 402.48177413 167.77553451 401.61327565 165.91552734 400.74462891 C152.83140448 394.63478957 139.73306311 388.55563743 126.6328125 382.48046875 C126.61879395 384.22118652 126.61879395 384.22118652 126.60449219 385.99707031 C126.56459374 390.30621606 126.49883566 394.61464774 126.42529297 398.92333984 C126.39708244 400.78750428 126.37586829 402.65178835 126.36181641 404.51611328 C126.34038766 407.19756316 126.29373952 409.87757461 126.2421875 412.55859375 C126.24095886 413.391026 126.23973022 414.22345825 126.23846436 415.08111572 C126.15180156 418.51142202 126.0541095 420.80132279 124.22509766 423.74975586 C120.2308691 426.41646204 115.96072288 428.22534249 111.546875 430.09375 C110.52392838 430.53566681 109.50098175 430.97758362 108.44703674 431.43289185 C105.0545465 432.89555372 101.6563013 434.34430533 98.2578125 435.79296875 C95.8607608 436.82289724 93.4640375 437.85359034 91.06762695 438.88500977 C84.20265966 441.83702552 77.33031127 444.77160625 70.45638275 447.7026825 C67.55137874 448.94172014 64.64706942 450.18238397 61.74267578 451.42285156 C51.77358167 455.67931055 41.80089917 459.92726181 31.82452393 464.16662598 C15.91400856 470.92786686 0.02098887 477.72944971 -15.8671875 484.54296875 C-17.05591461 485.05270233 -18.24464172 485.56243591 -19.46939087 486.08761597 C-21.7682735 487.07344084 -24.06700003 488.05962982 -26.36555481 489.04621887 C-28.51969984 489.96939528 -30.6749301 490.89004438 -32.8313446 491.8079071 C-37.16503618 493.65530822 -41.48367334 495.51136112 -45.7421875 497.52685547 C-46.37539917 497.82015244 -47.00861084 498.1134494 -47.66101074 498.41563416 C-49.22237185 499.14438544 -50.77307818 499.89586192 -52.32226562 500.65014648 C-59.78416336 502.68493755 -66.17721045 500.08645315 -72.79296875 496.68359375 C-73.57040939 496.29828491 -74.34785004 495.91297607 -75.14884949 495.51599121 C-76.8074639 494.69223171 -78.46303481 493.86231964 -80.11572266 493.0267334 C-83.58810739 491.27119857 -87.0749957 489.5454657 -90.56161499 487.81842041 C-92.31936048 486.94761146 -94.07638129 486.07533819 -95.83267212 485.20159912 C-103.45296226 481.41581622 -111.13777459 477.78717562 -118.8671875 474.23046875 C-120.45333862 473.50005371 -120.45333862 473.50005371 -122.0715332 472.75488281 C-124.1060229 471.81924032 -126.14786176 470.89939915 -128.19702148 469.99633789 C-130.56448384 468.86429524 -132.67859474 467.70599317 -134.89868164 466.33764648 C-141.23106285 462.50635428 -141.23106285 462.50635428 -148.40130615 461.69842529 C-153.55141449 463.04615568 -158.1420376 465.53409531 -162.8046875 468.04296875 C-164.22719017 468.75462545 -165.65232021 469.46105557 -167.08007812 470.16210938 C-170.5423473 471.87614294 -173.96142861 473.65690025 -177.3671875 475.48046875 C-174.14967151 478.09213332 -170.80604811 479.83742667 -167.0703125 481.6171875 C-166.47667908 481.90149124 -165.88304565 482.18579498 -165.27142334 482.47871399 C-163.38862144 483.3792714 -161.50298168 484.27369694 -159.6171875 485.16796875 C-158.33444265 485.78019524 -157.05188843 486.39282131 -155.76953125 487.00585938 C-152.63760937 488.50202624 -149.50311409 489.99271061 -146.3671875 491.48046875 C-146.99575577 493.07226319 -147.62636033 494.66325363 -148.2578125 496.25390625 C-148.60875977 497.13997559 -148.95970703 498.02604492 -149.32128906 498.93896484 C-150.53044013 501.87716807 -151.8881608 504.67031802 -153.3671875 507.48046875 C-158.47665066 506.84074107 -162.74366114 504.57891295 -167.32421875 502.3671875 C-168.61690926 501.75095268 -168.61690926 501.75095268 -169.93571472 501.12226868 C-172.68624771 499.80941146 -175.43294166 498.48872801 -178.1796875 497.16796875 C-180.01603779 496.29051683 -181.85262399 495.41355844 -183.68945312 494.53710938 C-192.40711306 490.37098724 -192.40711306 490.37098724 -196.14541626 488.55697632 C-197.63394892 487.83574245 -199.12618962 487.12211472 -200.62191772 486.41592407 C-201.68244858 485.90610489 -201.68244858 485.90610489 -202.7644043 485.38598633 C-203.38768112 485.09025223 -204.01095795 484.79451813 -204.65312195 484.48982239 C-207.76497194 482.65736207 -209.16350135 481.13517422 -210.2421875 477.66796875 C-210.39985357 473.64748406 -209.50076105 471.87576789 -207.3671875 468.48046875 C-204.59912109 466.66943359 -204.59912109 466.66943359 -201.265625 465.19140625 C-200.66972565 464.92083405 -200.07382629 464.65026184 -199.45986938 464.37149048 C-197.56154 463.51456718 -195.652698 462.68482266 -193.7421875 461.85546875 C-192.48228378 461.29212616 -191.22315992 460.72703602 -189.96484375 460.16015625 C-187.54114531 459.07184024 -185.11244198 457.99874113 -182.67871094 456.93261719 C-179.11099713 455.36812576 -175.56534775 453.75858398 -172.02587891 452.13134766 C-170.3671875 451.48046875 -170.3671875 451.48046875 -168.3671875 451.48046875 C-168.3671875 450.82046875 -168.3671875 450.16046875 -168.3671875 449.48046875 C-169.18747688 449.22890518 -169.18747688 449.22890518 -170.02433777 448.97225952 C-175.68569793 447.17011994 -180.92192472 444.92364532 -186.23046875 442.26953125 C-187.05257339 441.86476563 -187.87467804 441.46 -188.72169495 441.04296875 C-190.47291711 440.18036243 -192.22294923 439.31533648 -193.97186279 438.44805908 C-198.55466744 436.17581849 -203.14619262 433.92137463 -207.73828125 431.66796875 C-208.64910461 431.22071442 -209.55992798 430.77346008 -210.49835205 430.31265259 C-219.44037293 425.93320554 -228.45805523 421.73059148 -237.5246582 417.61572266 C-257.23264014 408.61571824 -257.23264014 408.61571824 -260.3671875 403.48046875 C-260.74471092 400.83142948 -260.74471092 400.83142948 -260.74813843 397.75611877 C-260.7565979 396.5882785 -260.76505737 395.42043823 -260.77377319 394.21720886 C-260.7677005 392.93969254 -260.76162781 391.66217621 -260.75537109 390.34594727 C-260.75943718 388.98402485 -260.76477927 387.62210574 -260.77130127 386.26019287 C-260.78497775 382.56384864 -260.77967463 378.86775561 -260.77016401 375.17140698 C-260.76256755 371.3020035 -260.76961313 367.43262149 -260.77432251 363.56321716 C-260.77978076 357.06415955 -260.77258735 350.5652042 -260.75830078 344.06616211 C-260.74198094 336.55550641 -260.74725755 329.04509511 -260.76378 321.53444535 C-260.77740111 315.08421252 -260.77931127 308.63405321 -260.77146399 302.18381065 C-260.76679001 298.33219679 -260.76615486 294.48069772 -260.77607346 290.62909126 C-260.78474976 287.0068228 -260.77870938 283.38486882 -260.76139069 279.76263428 C-260.75554148 277.80151296 -260.76443624 275.84036501 -260.77377319 273.8792572 C-260.76531372 272.70859711 -260.75685425 271.53793701 -260.74813843 270.33180237 C-260.74700735 269.31657281 -260.74587627 268.30134325 -260.74471092 267.25534916 C-260.30015931 263.98779676 -259.31362851 262.12374349 -257.3671875 259.48046875 C-253.30477493 257.01612067 -249.06277423 255.6368863 -244.52905273 254.27001953 C-243.86702567 254.06878605 -243.20499861 253.86755257 -242.52291012 253.6602211 C-240.3253778 252.99362879 -238.12561617 252.33473102 -235.92578125 251.67578125 C-234.35179154 251.19991946 -232.7779527 250.7235584 -231.20425415 250.24673462 C-227.834867 249.22691906 -224.46449474 248.21045355 -221.09329224 247.19665527 C-215.75846092 245.59233718 -210.42579846 243.98089704 -205.09350586 242.36816406 C-199.60710627 240.70916365 -194.12057063 239.05062172 -188.633255 237.39465332 C-173.06656989 232.69665489 -157.51069324 227.96369037 -141.95783329 223.22015858 C-136.92031319 221.68403908 -131.88175057 220.15137866 -126.8425293 218.62084961 C-126.14918834 218.41024367 -125.45584738 218.19963774 -124.74149609 217.9826498 C-119.20904331 216.30216342 -119.20904331 216.30216342 -116.56870842 215.50032616 C-108.8805342 213.16502764 -101.19687684 210.81584946 -93.52098083 208.44046021 C-89.73652019 207.27059568 -85.949374 206.10961621 -82.16159058 204.95056152 C-80.50077836 204.43973851 -78.84130009 203.92455233 -77.18338013 203.40441895 C-61.98828285 198.63822323 -61.98828285 198.63822323 -54.3671875 199.48046875 C-51.07882181 201.78232474 -50.06143342 203.62565986 -49.3671875 207.48046875 C-49.2792606 209.80300629 -49.24954119 212.12795078 -49.25366211 214.45214844 C-49.25351608 215.14523605 -49.25337006 215.83832367 -49.2532196 216.55241394 C-49.25391443 218.83575608 -49.26168665 221.11901592 -49.26953125 223.40234375 C-49.27139696 224.9884639 -49.27282014 226.57458463 -49.27381897 228.16070557 C-49.27763212 232.3298299 -49.28745213 236.49891925 -49.29852295 240.66802979 C-49.30876293 244.92451504 -49.31332213 249.18100597 -49.31835938 253.4375 C-49.32907548 261.78517228 -49.34613746 270.13281616 -49.3671875 278.48046875 C-48.46887207 278.17753906 -47.57055664 277.87460937 -46.64501953 277.5625 C-43.31736731 276.44193326 -39.98883654 275.32405748 -36.65966797 274.20800781 C-35.21789873 273.72406184 -33.77649004 273.23904036 -32.33544922 272.75292969 C-30.26623471 272.05512163 -28.19576207 271.36116877 -26.125 270.66796875 C-24.8786377 270.24902344 -23.63227539 269.83007812 -22.34814453 269.3984375 C-19.3671875 268.48046875 -19.3671875 268.48046875 -17.3671875 268.48046875 C-17.3671875 186.31046875 -17.3671875 104.14046875 -17.3671875 19.48046875 C-67.02042919 35.99592974 -67.02042919 35.99592974 -116.56835938 52.79345703 C-137.59711305 59.99719349 -158.67667024 67.05324901 -179.75553131 74.10875511 C-186.97577571 76.52574397 -194.19433753 78.94754223 -201.40917969 81.38061523 C-207.82514269 83.54427979 -214.24384077 85.69957992 -220.66607642 87.84455782 C-224.03179515 88.96897168 -227.39605221 90.09735905 -230.75702667 91.23588371 C-234.46160786 92.49060812 -238.17231882 93.72648594 -241.88378906 94.96069336 C-242.9795929 95.33502502 -244.07539673 95.70935669 -245.20440674 96.09503174 C-246.21221191 96.42681931 -247.22001709 96.75860687 -248.25836182 97.10044861 C-249.12966862 97.39290938 -250.00097542 97.68537016 -250.89868546 97.98669338 C-253.69999696 98.54704075 -255.62900403 98.21659233 -258.3671875 97.48046875 C-259.04131961 95.56641508 -259.7062207 93.64910849 -260.3671875 91.73046875 C-260.7384375 90.663125 -261.1096875 89.59578125 -261.4921875 88.49609375 C-262.3671875 85.48046875 -262.3671875 85.48046875 -262.3671875 81.48046875 C-230.74995004 70.91850406 -199.13113531 60.3612767 -167.51019417 49.81040565 C-163.77761802 48.56496288 -160.04505497 47.31948087 -156.3125 46.07397461 C-155.56941078 45.82601589 -154.82632157 45.57805718 -154.0607145 45.32258456 C-142.02648984 41.30682425 -129.99332893 37.28788558 -117.96055768 33.26777268 C-105.61512469 29.14327903 -93.26855579 25.02219985 -80.92092431 20.90429252 C-73.30094759 18.36292772 -65.68187089 15.81889927 -58.06392153 13.27146363 C-52.22379639 11.31884777 -46.38209689 9.37098284 -40.53979301 7.42489624 C-38.1423002 6.62545639 -35.74532288 5.82446867 -33.34889793 5.02183342 C-30.0812065 3.92763982 -26.81171916 2.83899077 -23.54171753 1.75172424 C-22.59034845 1.43168838 -21.63897938 1.11165251 -20.65878093 0.78191859 C-12.94494928 -1.771892 -7.7430286 -3.19897326 0 0 Z M0.6328125 20.48046875 C0.6328125 102.65046875 0.6328125 184.82046875 0.6328125 269.48046875 C24.65076542 280.57915493 24.65076542 280.57915493 49.6328125 288.48046875 C49.6328125 206.64046875 49.6328125 124.80046875 49.6328125 40.48046875 C38.87562011 35.49817045 38.87562011 35.49817045 27.99609375 30.83203125 C27.26456589 30.52977631 26.53303802 30.22752136 25.77934265 29.91610718 C24.26532586 29.29149448 22.75074546 28.66824609 21.2355957 28.04638672 C18.90836176 27.09028826 16.58401913 26.12738044 14.25976562 25.1640625 C12.77620865 24.55297986 11.29249084 23.94228752 9.80859375 23.33203125 C9.11598953 23.04462067 8.42338531 22.75721008 7.70979309 22.46109009 C4.28373118 20.97895671 4.28373118 20.97895671 0.6328125 20.48046875 Z M67.6328125 48.48046875 C67.6328125 89.07046875 67.6328125 129.66046875 67.6328125 171.48046875 C83.8028125 167.52046875 99.9728125 163.56046875 116.6328125 159.48046875 C116.6328125 150.24046875 116.6328125 141.00046875 116.6328125 131.48046875 C122.5728125 131.48046875 128.5128125 131.48046875 134.6328125 131.48046875 C134.6328125 141.05046875 134.6328125 150.62046875 134.6328125 160.48046875 C138.4071875 161.96546875 142.1815625 163.45046875 146.0703125 164.98046875 C147.26197021 165.45033203 148.45362793 165.92019531 149.68139648 166.40429688 C151.07853882 166.9524707 151.07853882 166.9524707 152.50390625 167.51171875 C153.46224365 167.88876953 154.42058105 168.26582031 155.40795898 168.65429688 C157.39350538 169.53848735 157.39350538 169.53848735 158.6328125 169.48046875 C158.6328125 141.76046875 158.6328125 114.04046875 158.6328125 85.48046875 C148.19115183 80.62819273 148.19115183 80.62819273 137.60546875 76.17578125 C136.15673468 75.59384035 134.70800437 75.01189007 133.25927734 74.42993164 C132.14368439 73.98401169 132.14368439 73.98401169 131.0055542 73.52908325 C119.92005591 69.09719763 108.86222893 64.6068215 97.87109375 59.9453125 C96.99810135 59.57531128 96.12510895 59.20531006 95.22566223 58.82409668 C90.99074904 57.02709331 86.75935706 55.22221613 82.53149414 53.40869141 C81.00021476 52.7567138 79.46888602 52.10485209 77.9375 51.453125 C77.23921585 51.15075424 76.5409317 50.84838348 75.82148743 50.53684998 C72.9175455 49.30535393 70.82260154 48.48046875 67.6328125 48.48046875 Z M176.6328125 93.48046875 C176.6328125 175.32046875 176.6328125 257.16046875 176.6328125 341.48046875 C182.81236373 344.60733867 182.81236373 344.60733867 189.08935547 347.40332031 C189.86310516 347.72335022 190.63685486 348.04338013 191.43405151 348.37310791 C192.64232101 348.8671109 192.64232101 348.8671109 193.875 349.37109375 C195.14937424 349.89530914 195.14937424 349.89530914 196.44949341 350.43011475 C198.22872504 351.16098722 200.00859049 351.89031849 201.7890625 352.61816406 C204.52287508 353.73663121 207.25370697 354.86216197 209.984375 355.98828125 C211.71857614 356.69964274 213.45294517 357.41059512 215.1875 358.12109375 C216.41398758 358.62724213 216.41398758 358.62724213 217.66525269 359.14361572 C221.52251199 360.85642567 221.52251199 360.85642567 225.6328125 361.48046875 C225.6328125 279.64046875 225.6328125 197.80046875 225.6328125 113.48046875 C219.31003581 110.3190804 213.15869642 107.3362554 206.6328125 104.7109375 C205.83045166 104.38507156 205.02809082 104.05920563 204.20141602 103.72346497 C202.52846967 103.04519247 200.85471602 102.36890792 199.18017578 101.69458008 C196.60864601 100.65822943 194.04053824 99.6137113 191.47265625 98.56835938 C189.83873719 97.90706878 188.20462948 97.24624406 186.5703125 96.5859375 C185.41885742 96.11730537 185.41885742 96.11730537 184.24414062 95.63920593 C180.5556275 94.04497231 180.5556275 94.04497231 176.6328125 93.48046875 Z M109.28491211 178.47436523 C108.410681 178.69136581 107.53644989 178.90836639 106.63572693 179.13194275 C105.6950386 179.36941727 104.75435028 179.60689178 103.78515625 179.8515625 C102.81751846 180.09334732 101.84988068 180.33513214 100.85292053 180.58424377 C98.80736568 181.09621771 96.76224527 181.60993011 94.7175293 182.12524414 C91.58036562 182.91543656 88.44168105 183.69934583 85.30273438 184.48242188 C83.3176148 184.98009579 81.33258561 185.47813045 79.34765625 185.9765625 C77.93358742 186.32973793 77.93358742 186.32973793 76.49095154 186.69004822 C75.61987259 186.91020096 74.74879364 187.1303537 73.85131836 187.35717773 C73.08315292 187.55037094 72.31498749 187.74356415 71.52354431 187.94261169 C69.56739223 188.43592089 69.56739223 188.43592089 67.6328125 189.48046875 C67.6328125 194.43046875 67.6328125 199.38046875 67.6328125 204.48046875 C76.79577039 202.97117866 85.73721733 200.81164146 94.73364258 198.53930664 C97.22040034 197.91163645 99.70870851 197.29041544 102.19726562 196.66992188 C103.78134412 196.27251038 105.36533198 195.87473742 106.94921875 195.4765625 C107.69184464 195.29113388 108.43447052 195.10570526 109.19960022 194.91465759 C113.01196897 193.96866496 113.01196897 193.96866496 116.6328125 192.48046875 C116.6328125 187.53046875 116.6328125 182.58046875 116.6328125 177.48046875 C113.8884529 177.48046875 111.92121658 177.81474964 109.28491211 178.47436523 Z M134.6328125 179.48046875 C134.6328125 184.10046875 134.6328125 188.72046875 134.6328125 193.48046875 C138.25610809 194.98470349 141.88130006 196.48402682 145.5078125 197.98046875 C146.54035156 198.40972656 147.57289063 198.83898437 148.63671875 199.28125 C149.62285156 199.68730469 150.60898437 200.09335938 151.625 200.51171875 C152.53620605 200.88876953 153.44741211 201.26582031 154.38623047 201.65429688 C156.54671577 202.59551794 156.54671577 202.59551794 158.6328125 202.48046875 C158.6328125 197.86046875 158.6328125 193.24046875 158.6328125 188.48046875 C155.00951691 186.97623401 151.38432494 185.47691068 147.7578125 183.98046875 C146.72527344 183.55121094 145.69273437 183.12195313 144.62890625 182.6796875 C143.64277344 182.27363281 142.65664063 181.86757812 141.640625 181.44921875 C140.72941895 181.07216797 139.81821289 180.69511719 138.87939453 180.30664062 C136.71890923 179.36541956 136.71890923 179.36541956 134.6328125 179.48046875 Z M100.6328125 214.48046875 C100.6328125 236.26046875 100.6328125 258.04046875 100.6328125 280.48046875 C105.9128125 279.16046875 111.1928125 277.84046875 116.6328125 276.48046875 C116.6328125 255.03046875 116.6328125 233.58046875 116.6328125 211.48046875 C111.21802135 211.31877833 111.21802135 211.31877833 100.6328125 214.48046875 Z M134.6328125 212.48046875 C134.6328125 233.93046875 134.6328125 255.38046875 134.6328125 277.48046875 C146.31474896 283.59798898 146.31474896 283.59798898 158.6328125 286.48046875 C158.6328125 265.36046875 158.6328125 244.24046875 158.6328125 222.48046875 C149.48127987 217.73022779 149.48127987 217.73022779 134.6328125 212.48046875 Z M-73.19384766 220.93554688 C-74.2431395 221.25940872 -75.29243134 221.58327057 -76.3735199 221.91694641 C-77.53932083 222.27822128 -78.70512177 222.63949615 -79.90625 223.01171875 C-81.79201545 223.59393259 -83.67778222 224.17614218 -85.56359386 224.75820637 C-87.61254642 225.3908139 -89.66131566 226.02401232 -91.71005249 226.65731812 C-99.0721279 228.93266415 -106.43621384 231.20148447 -113.80078125 233.46875 C-114.96759273 233.82798018 -114.96759273 233.82798018 -116.15797615 234.19446754 C-134.92729208 239.97135313 -153.7148751 245.68798038 -172.50585175 251.39395142 C-175.0184668 252.15696943 -177.53100186 252.92025032 -180.04351807 253.68359375 C-184.08125298 254.91022666 -188.11920007 256.13615872 -192.15731621 257.36153603 C-193.61957033 257.80528543 -195.0817891 258.24915134 -196.54396248 258.69316673 C-211.80697062 263.3271938 -227.08878676 267.89694853 -242.3671875 272.48046875 C-242.3671875 293.93046875 -242.3671875 315.38046875 -242.3671875 337.48046875 C-236.19458865 336.60508518 -236.19458865 336.60508518 -230.4296875 334.91796875 C-229.65753906 334.64855469 -228.88539063 334.37914062 -228.08984375 334.1015625 C-227.52136719 333.89660156 -226.95289063 333.69164062 -226.3671875 333.48046875 C-226.3578418 332.38057617 -226.34849609 331.28068359 -226.33886719 330.14746094 C-226.29895813 326.06192709 -226.23319746 321.97714556 -226.15966797 317.89208984 C-226.13146353 316.12493564 -226.11024632 314.35765541 -226.09619141 312.59033203 C-226.07475392 310.04784653 -226.02810247 307.50687537 -225.9765625 304.96484375 C-225.97533386 304.17615906 -225.97410522 303.38747437 -225.97283936 302.57489014 C-225.88570159 299.30272896 -225.66615779 296.95159597 -223.89428711 294.15942383 C-220.25764304 291.74330932 -216.45874414 290.4794298 -212.32421875 289.1328125 C-211.44118576 288.83484268 -210.55815277 288.53687286 -209.64836121 288.22987366 C-206.8290685 287.28140459 -204.00461798 286.34949481 -201.1796875 285.41796875 C-199.29846422 284.78819537 -197.41760049 284.15734688 -195.53710938 283.52539062 C-191.26865152 282.09355054 -186.99733483 280.67086488 -182.72085571 279.26315308 C-181.10937775 278.72727528 -179.5012341 278.18129438 -177.89608765 277.6267395 C-176.70942001 277.21897781 -176.70942001 277.21897781 -175.4987793 276.80297852 C-174.79528854 276.55790054 -174.09179779 276.31282257 -173.36698914 276.06031799 C-169.24934916 274.86639437 -165.80145525 274.72559099 -161.9921875 276.73046875 C-158.70245667 280.27325579 -159.18822863 284.79965341 -159.05078125 289.43359375 C-159.0196096 290.42392609 -159.0196096 290.42392609 -158.98780823 291.43426514 C-158.92268603 293.5328989 -158.86360248 295.63165247 -158.8046875 297.73046875 C-158.76146671 299.15756422 -158.7178513 300.5846478 -158.67382812 302.01171875 C-158.56704339 305.50117597 -158.46567184 308.99076628 -158.3671875 312.48046875 C-156.42932665 312.00276352 -154.49191076 311.52325304 -152.5546875 311.04296875 C-151.47574219 310.77613281 -150.39679688 310.50929688 -149.28515625 310.234375 C-147.2931032 309.71969463 -145.31907226 309.131097 -143.3671875 308.48046875 C-143.34736816 307.48192871 -143.32754883 306.48338867 -143.30712891 305.45458984 C-143.23074486 301.73071143 -143.1420795 298.00720714 -143.04980469 294.28369141 C-143.01164991 292.67569393 -142.97677402 291.06761502 -142.9453125 289.45947266 C-142.8993669 287.14065559 -142.84142369 284.82239255 -142.78125 282.50390625 C-142.76969879 281.79116547 -142.75814758 281.07842468 -142.74624634 280.34408569 C-142.62061554 276.04302978 -142.38172374 272.3169496 -140.3671875 268.48046875 C-137.93824489 267.14486192 -135.99786101 266.31736058 -133.3984375 265.50390625 C-132.6909436 265.26151215 -131.98344971 265.01911804 -131.2545166 264.76937866 C-129.74119044 264.25305498 -128.22438645 263.74683315 -126.70458984 263.24987793 C-124.39499469 262.48962212 -122.10125614 261.69354994 -119.80859375 260.88378906 C-115.95526791 259.52572866 -112.09072014 258.20475514 -108.21875 256.90087891 C-106.63491989 256.36515232 -105.05290778 255.82402419 -103.47265625 255.27783203 C-101.13926199 254.47155075 -98.80094719 253.68137569 -96.4609375 252.89453125 C-95.7649646 252.65086823 -95.0689917 252.4072052 -94.35192871 252.15615845 C-88.8422423 250.33567107 -83.47515452 249.19678344 -77.90527344 251.49731445 C-75.57396483 254.50322236 -75.76397549 257.55808013 -75.7578125 261.2109375 C-75.74127625 261.96135818 -75.72473999 262.71177887 -75.70770264 263.48493958 C-75.65915698 265.87936531 -75.63783865 268.27315577 -75.6171875 270.66796875 C-75.58903307 272.29234978 -75.55910638 273.91670114 -75.52734375 275.54101562 C-75.45339711 279.52078102 -75.40386333 283.50019242 -75.3671875 287.48046875 C-72.7271875 286.82046875 -70.0871875 286.16046875 -67.3671875 285.48046875 C-67.3671875 263.70046875 -67.3671875 241.92046875 -67.3671875 219.48046875 C-69.35231585 219.48046875 -71.31978318 220.35560857 -73.19384766 220.93554688 Z M74.5078125 220.91796875 C73.43273437 221.18480469 72.35765625 221.45164063 71.25 221.7265625 C68.72730036 222.22473174 68.72730036 222.22473174 67.6328125 223.48046875 C67.53871771 225.50541106 67.51538128 227.53366745 67.51928711 229.56079102 C67.51936264 230.86206436 67.51943817 232.16333771 67.51951599 233.50404358 C67.52462341 234.93498777 67.52983942 236.36593157 67.53515625 237.796875 C67.53702047 239.25276135 67.53844435 240.70864832 67.53944397 242.16453552 C67.54326885 246.00326254 67.55309886 249.84195194 67.56414795 253.68066406 C67.57436272 257.59504691 67.57894173 261.50943581 67.58398438 265.42382812 C67.59472117 273.10939416 67.61231771 280.7949214 67.6328125 288.48046875 C72.9128125 287.16046875 78.1928125 285.84046875 83.6328125 284.48046875 C83.6328125 263.03046875 83.6328125 241.58046875 83.6328125 219.48046875 C80.34789381 219.48046875 77.69076844 220.11647743 74.5078125 220.91796875 Z M-101.08984375 272.6328125 C-101.75052353 272.85240128 -102.41120331 273.07199005 -103.09190369 273.29823303 C-104.48860085 273.76334494 -105.88479364 274.22997374 -107.28051758 274.69799805 C-109.42317365 275.41578661 -111.56788665 276.12715356 -113.71289062 276.83789062 C-115.06783678 277.28997981 -116.42265882 277.74244115 -117.77734375 278.1953125 C-119.01621338 278.609021 -120.25508301 279.02272949 -121.53149414 279.44897461 C-124.2330781 280.20542885 -124.2330781 280.20542885 -125.3671875 281.48046875 C-125.45404353 283.0421962 -125.47420969 284.60776219 -125.46484375 286.171875 C-125.46162109 287.11611328 -125.45839844 288.06035156 -125.45507812 289.03320312 C-125.44669922 290.02642578 -125.43832031 291.01964844 -125.4296875 292.04296875 C-125.42517578 293.04005859 -125.42066406 294.03714844 -125.41601562 295.06445312 C-125.40418757 297.53651724 -125.38770599 300.00846393 -125.3671875 302.48046875 C-114.08247187 299.94530057 -103.31583043 296.2002 -92.3671875 292.48046875 C-92.3671875 285.22046875 -92.3671875 277.96046875 -92.3671875 270.48046875 C-95.48045782 270.48046875 -98.14373787 271.65256377 -101.08984375 272.6328125 Z M119.73388672 293.3984375 C118.9332077 293.59864502 118.13252869 293.79885254 117.30758667 294.00512695 C116.44295807 294.22386475 115.57832947 294.44260254 114.6875 294.66796875 C113.8024881 294.8899292 112.9174762 295.11188965 112.00564575 295.34057617 C109.17247638 296.0516726 106.34014151 296.7660333 103.5078125 297.48046875 C101.58989773 297.96245442 99.67192964 298.44422798 97.75390625 298.92578125 C93.04625227 300.10821467 88.33934428 301.29357677 83.6328125 302.48046875 C87.07355599 305.40064889 90.8748442 306.96523002 95.02734375 308.59765625 C95.75971756 308.89148697 96.49209137 309.18531769 97.24665833 309.48805237 C99.64415651 310.44908215 102.04471316 311.40221528 104.4453125 312.35546875 C107.79432192 313.69455242 111.14150692 315.03815364 114.48828125 316.3828125 C115.33442993 316.72230423 116.18057861 317.06179596 117.05236816 317.41157532 C122.68086031 319.67607059 128.28439479 321.99373892 133.87109375 324.359375 C134.94720665 324.8146759 134.94720665 324.8146759 136.0450592 325.2791748 C139.4406611 326.71803263 142.83279555 328.16461843 146.22192383 329.61865234 C147.42228271 330.1286377 148.6226416 330.63862305 149.859375 331.1640625 C150.90689941 331.61322021 151.95442383 332.06237793 153.03369141 332.52514648 C155.64059426 333.65296388 155.64059426 333.65296388 158.6328125 333.48046875 C158.6328125 324.24046875 158.6328125 315.00046875 158.6328125 305.48046875 C153.97093858 303.62590907 149.30834769 301.77343477 144.64355469 299.92626953 C143.05615382 299.29696223 141.46923691 298.66643279 139.8828125 298.03466797 C137.60542217 297.12798194 135.32634049 296.22567277 133.046875 295.32421875 C132.33536285 295.03985962 131.62385071 294.75550049 130.89077759 294.46252441 C126.50127127 292.73292949 124.22799617 292.26784393 119.73388672 293.3984375 Z M-184.46484375 297.88671875 C-185.17370224 298.13087524 -185.88256073 298.37503174 -186.61289978 298.62658691 C-188.88566031 299.40977858 -191.15767827 300.19510059 -193.4296875 300.98046875 C-194.96674858 301.51055673 -196.50385734 302.04050648 -198.04101562 302.5703125 C-201.81705476 303.8718322 -205.59208349 305.17622642 -209.3671875 306.48046875 C-209.3671875 313.41046875 -209.3671875 320.34046875 -209.3671875 327.48046875 C-204.49591316 326.78457242 -200.58786375 326.07202399 -195.99609375 324.6328125 C-194.27036133 324.09624023 -194.27036133 324.09624023 -192.50976562 323.54882812 C-190.73762695 322.98905273 -190.73762695 322.98905273 -188.9296875 322.41796875 C-187.72119141 322.04091797 -186.51269531 321.66386719 -185.26757812 321.27539062 C-182.29928385 320.34853194 -179.33302929 319.41514538 -176.3671875 318.48046875 C-176.3671875 310.89046875 -176.3671875 303.30046875 -176.3671875 295.48046875 C-179.02696272 295.48046875 -181.94214297 297.01309857 -184.46484375 297.88671875 Z M-68.44921875 303.16674805 C-69.67015732 303.54019348 -70.89109589 303.91363892 -72.14903259 304.29840088 C-73.49261651 304.71705949 -74.83616706 305.13582522 -76.1796875 305.5546875 C-77.59827987 305.99125594 -79.01707273 306.42717335 -80.43605042 306.86248779 C-83.48450497 307.79909401 -86.53158792 308.73999341 -89.57766724 309.68429565 C-94.40245812 311.179934 -99.23010654 312.66618431 -104.05834961 314.15063477 C-109.07431289 315.69319981 -114.09012235 317.23625116 -119.10496521 318.78245544 C-135.22450488 323.7519229 -151.36030977 328.66731769 -167.49975586 333.57168579 C-171.81975628 334.88442796 -176.13942131 336.1982707 -180.45898438 337.51245117 C-181.82823655 337.92902234 -183.19748907 338.34559238 -184.56674194 338.76216125 C-185.23057262 338.96411921 -185.89440331 339.16607716 -186.57835007 339.37415504 C-189.77239268 340.34581075 -192.96652286 341.31717843 -196.16064453 342.28857422 C-206.22996372 345.35098962 -216.29861984 348.41558353 -226.3671875 351.48046875 C-222.8535297 354.38125321 -218.94618856 356.28973077 -214.8671875 358.25390625 C-214.12842377 358.61350937 -213.38966003 358.97311249 -212.62850952 359.34361267 C-210.21025515 360.51880066 -207.78886213 361.68734698 -205.3671875 362.85546875 C-203.67133521 363.67722118 -201.97553494 364.49908097 -200.27978516 365.32104492 C-189.74239405 370.41878041 -179.17324344 375.43848982 -168.50366211 380.25488281 C-162.03428896 383.20535201 -155.69843567 386.31906956 -149.40313721 389.62266541 C-145.55257584 391.63970514 -141.68495248 393.62294003 -137.81695557 395.60629272 C-135.90970941 396.59660524 -134.01091817 397.60339424 -132.121521 398.62734985 C-122.00303953 404.52035733 -122.00303953 404.52035733 -110.76611328 406.19702148 C-107.37134584 404.9312425 -104.48030084 403.33027931 -101.3671875 401.48046875 C-99.49164268 400.60468299 -97.59566362 399.793828 -95.69015503 398.98551941 C-93.61789889 398.10539345 -91.56348567 397.19194246 -89.51049805 396.26782227 C-84.84259875 394.16922141 -80.16975941 392.08181736 -75.49609375 389.99609375 C-74.66918533 389.6267421 -73.84227692 389.25739044 -72.99031067 388.87684631 C-63.69503087 384.72778177 -54.37653738 380.6319122 -45.0546875 376.54296875 C-43.78339493 375.98511185 -43.78339493 375.98511185 -42.48641968 375.41598511 C-27.91278779 369.02201603 -13.32634039 362.65746139 1.26879883 356.31274414 C4.96457459 354.70581733 8.65743536 353.09232003 12.3493042 351.47644043 C14.80461253 350.4055367 17.26391098 349.34408226 19.72314453 348.28222656 C21.38196905 347.55955027 23.04066427 346.83657709 24.69921875 346.11328125 C25.47974106 345.77884003 26.26026337 345.4443988 27.06443787 345.099823 C31.04781825 343.60777836 31.04781825 343.60777836 33.6328125 340.48046875 C15.97823324 332.7858661 -1.68722204 325.11656401 -19.3671875 317.48046875 C-20.41096558 317.02955872 -21.45474365 316.57864868 -22.53015137 316.11407471 C-27.99370679 313.75580875 -33.46152564 311.40804857 -38.93743896 309.07861328 C-40.55030849 308.3911514 -42.16185782 307.70058345 -43.77203369 307.00683594 C-45.9876649 306.05314237 -48.20782746 305.11094666 -50.4296875 304.171875 C-51.06687714 303.89489273 -51.70406677 303.61791046 -52.36056519 303.33253479 C-58.34309039 300.83403345 -62.34077167 301.27927621 -68.44921875 303.16674805 Z M47.7109375 354.34765625 C47.0311937 354.65353165 46.35144989 354.95940704 45.65110779 355.27455139 C44.17152123 355.94157377 42.69384027 356.61283558 41.21786499 357.28781128 C38.00961204 358.75472273 34.79210303 360.20081679 31.57524109 361.64872742 C29.87041432 362.41644649 28.16608761 363.18527687 26.4622345 363.95515442 C17.11182097 368.17842864 7.71811156 372.30149219 -1.6796875 376.41796875 C-3.4018004 377.17319846 -5.12388689 377.92848841 -6.84594727 378.68383789 C-34.98743743 391.0234578 -63.16492007 403.28044843 -91.3671875 415.48046875 C-87.4428312 420.03951989 -81.54247547 422.22775332 -76.24511719 424.85302734 C-74.91405933 425.51920525 -73.58934877 426.19822526 -72.27148438 426.89013672 C-70.35600641 427.89533124 -68.42414363 428.85909465 -66.484375 429.81640625 C-65.33565918 430.3995459 -64.18694336 430.98268555 -63.00341797 431.58349609 C-57.95109802 432.82978477 -55.03574279 431.48963467 -50.3671875 429.48046875 C-49.09702789 428.96299072 -49.09702789 428.96299072 -47.8012085 428.43505859 C-44.92282733 427.24719027 -42.06451329 426.0185202 -39.20703125 424.78125 C-38.12886139 424.31795792 -37.05069153 423.85466583 -35.93984985 423.37733459 C-32.39335381 421.85253967 -28.84905165 420.32271187 -25.3046875 418.79296875 C-22.81082337 417.71938214 -20.31644122 416.64700198 -17.82202148 415.57470703 C-13.28147392 413.62244038 -8.74142895 411.66901398 -4.20206165 409.71400452 C7.69607557 404.5898172 19.60215385 399.48420791 31.50949097 394.38143921 C33.87749853 393.36664261 36.24543914 392.35168977 38.61331177 391.33657837 C57.26749098 383.33956154 75.93654806 375.37861696 94.6328125 367.48046875 C91.95960597 364.80726222 88.82094529 363.67978787 85.39453125 362.22265625 C84.31785942 361.76078415 84.31785942 361.76078415 83.21943665 361.2895813 C81.69986996 360.63988361 80.17918167 359.99280393 78.6574707 359.34814453 C76.33555579 358.36194313 74.0203068 357.36115427 71.70507812 356.359375 C70.22694779 355.72956373 68.74844379 355.10062857 67.26953125 354.47265625 C66.57977707 354.17269745 65.89002289 353.87273865 65.17936707 353.56369019 C58.18813813 350.63574191 54.43114638 351.23128232 47.7109375 354.34765625 Z M-242.3671875 364.48046875 C-242.3671875 374.71046875 -242.3671875 384.94046875 -242.3671875 395.48046875 C-236.705625 398.07921875 -236.705625 398.07921875 -230.9296875 400.73046875 C-218.49070325 406.47583935 -206.16920248 412.44819184 -193.8671875 418.48046875 C-182.41706936 424.09469335 -170.95993793 429.66538101 -159.3671875 434.98046875 C-147.77442277 440.29556305 -136.31750513 445.86662958 -124.8671875 451.48046875 C-105.84328326 460.80584362 -86.72975085 469.87488504 -67.3671875 478.48046875 C-67.3671875 468.25046875 -67.3671875 458.02046875 -67.3671875 447.48046875 C-80.7013101 441.026186 -94.03311777 434.60582893 -107.4921875 428.41796875 C-120.27844256 422.53023767 -132.91835072 416.35827019 -145.55712891 410.16162109 C-157.21739369 404.4472207 -168.9133673 398.84906251 -180.71875 393.43945312 C-192.87212181 387.84288273 -204.8716713 381.9304269 -216.87158203 376.01342773 C-218.46386374 375.23160105 -220.05614875 374.44978109 -221.6484375 373.66796875 C-222.35060394 373.3194838 -223.05277039 372.97099884 -223.7762146 372.61195374 C-229.89357565 369.61303658 -236.0365278 367.11824362 -242.3671875 364.48046875 Z M103.45092773 382.2109375 C102.54841278 382.59490189 101.64589783 382.97886627 100.71603394 383.37446594 C99.7179068 383.80132187 98.71977966 384.2281778 97.69140625 384.66796875 C96.12484787 385.33550423 96.12484787 385.33550423 94.52664185 386.01652527 C91.04042514 387.50269976 87.5553594 388.99155338 84.0703125 390.48046875 C82.24301392 391.26000811 80.41571478 392.03954617 78.58834362 392.81891537 C59.61938305 400.90943852 40.66432636 409.03240869 21.71212769 417.16210938 C-1.96044194 427.31661636 -25.65917842 437.40902128 -49.3671875 447.48046875 C-49.3671875 457.71046875 -49.3671875 467.94046875 -49.3671875 478.48046875 C-42.1193588 476.09211925 -42.1193588 476.09211925 -35.09350586 473.31762695 C-34.15161407 472.91389359 -33.20972229 472.51016022 -32.23928833 472.0941925 C-31.23864349 471.66092148 -30.23799866 471.22765045 -29.20703125 470.78125 C-28.12904266 470.31804855 -27.05105408 469.85484711 -25.94039917 469.37760925 C-22.39370389 467.8527596 -18.849213 466.32285445 -15.3046875 464.79296875 C-12.80788067 463.71794776 -10.31057703 462.64408352 -7.81323242 461.5703125 C-3.92794573 459.89949413 -0.04282238 458.22830054 3.84153748 456.55532837 C12.71809493 452.73232937 21.59934552 448.92045369 30.484375 445.1171875 C31.68217087 444.60444778 32.87996674 444.09170807 34.11405945 443.56343079 C36.50302296 442.54083312 38.89199484 441.518255 41.28097534 440.49569702 C63.75370845 430.87487848 86.20547191 421.20661135 108.6328125 411.48046875 C108.6328125 401.25046875 108.6328125 391.02046875 108.6328125 380.48046875 C106.79177427 380.48046875 105.11949681 381.49919435 103.45092773 382.2109375 Z " fill="#000000" transform="translate(262.3671875,2.51953125)"/>
<path d="M0 0 C2.02957484 1.6241077 2.90094433 2.47187788 3.38590336 5.05747032 C3.39093089 5.85201433 3.39595842 6.64655834 3.40113831 7.46517944 C3.41393326 8.37922043 3.42672821 9.29326141 3.43991089 10.23500061 C3.43855133 11.23559006 3.43719177 12.2361795 3.43579102 13.26708984 C3.44586685 14.32263565 3.45594269 15.37818146 3.46632385 16.4657135 C3.49488199 19.96422846 3.5006845 23.46231315 3.50390625 26.9609375 C3.51354209 29.38848043 3.52363416 31.81602158 3.53416443 34.24356079 C3.55214566 39.33624308 3.55768342 44.42877257 3.5559082 49.52148438 C3.5556033 56.05115103 3.59655784 62.57983924 3.64822483 69.10927391 C3.68156222 74.12442535 3.68766656 79.13933969 3.68607903 84.15459061 C3.68962291 86.56199135 3.70291358 88.96939799 3.72607613 91.37668991 C3.75543417 94.74319938 3.74686333 98.10757816 3.72875977 101.47412109 C3.75404755 102.96893257 3.75404755 102.96893257 3.77984619 104.49394226 C3.71939456 108.91213613 3.56588058 111.25310901 0.85166931 114.83552551 C-4.58272068 118.44371167 -11.20051721 120.14138318 -17.35546875 122.1574707 C-18.82481163 122.64968207 -20.29376578 123.14305518 -21.76235962 123.63749695 C-25.73754472 124.97193602 -29.71815259 126.28943877 -33.70013809 127.60342431 C-37.87222493 128.98277508 -42.03965686 130.37605917 -46.20776367 131.76737976 C-53.20540368 134.1008083 -60.20654705 136.42346465 -67.20996094 138.73950195 C-75.30222294 141.41574425 -83.38906513 144.10786248 -91.47312069 146.80878383 C-99.25829147 149.40953834 -107.04682712 152.00006344 -114.83706665 154.58559227 C-118.14897675 155.68492282 -121.45973519 156.78762578 -124.7696228 157.89303017 C-128.66732381 159.19414963 -132.56791246 160.48621667 -136.47089767 161.77139473 C-137.90136843 162.24398192 -139.33083853 162.71961061 -140.75920486 163.19852066 C-142.7115748 163.85254254 -144.66730243 164.4953349 -146.62426758 165.13545227 C-147.71709549 165.49767537 -148.8099234 165.85989847 -149.93586731 166.23309803 C-153.12758768 167.0319331 -155.72469674 167.27563105 -159 167 C-161.69990662 165.20006226 -163.5418865 163.916227 -165 161 C-165.10224655 159.57975225 -165.14373728 158.15489 -165.15390015 156.73100281 C-165.16250061 155.83516479 -165.17110107 154.93932678 -165.17996216 154.01634216 C-165.18422211 153.03085892 -165.18848206 152.04537567 -165.19287109 151.0300293 C-165.20104858 149.99413666 -165.20922607 148.95824402 -165.21765137 147.89096069 C-165.24252874 144.45205266 -165.25902661 141.01318593 -165.2734375 137.57421875 C-165.27876118 136.40180948 -165.28408485 135.22940022 -165.28956985 134.02146339 C-165.31631044 127.81713133 -165.33568327 121.61281946 -165.35009766 115.40844727 C-165.366756 108.99214112 -165.4115418 102.57634755 -165.4624691 96.1602354 C-165.49608282 91.23347872 -165.50766865 86.30684463 -165.51332474 81.3799839 C-165.52005244 79.01444388 -165.53531361 76.64891234 -165.55921555 74.28348351 C-165.59074529 70.97461215 -165.59092172 67.6671357 -165.58349609 64.3581543 C-165.6081041 62.88903847 -165.6081041 62.88903847 -165.63320923 61.39024353 C-165.59111356 56.81404723 -165.5247173 54.6925537 -162.69258118 50.95452881 C-160.51254526 49.37205359 -158.86061618 48.20485798 -156.33520508 47.36938477 C-155.64859299 47.13409561 -154.9619809 46.89880646 -154.25456238 46.65638733 C-153.51700211 46.42044357 -152.77944183 46.18449982 -152.01953125 45.94140625 C-151.23149612 45.67601547 -150.443461 45.41062469 -149.63154602 45.13719177 C-147.02969154 44.26476501 -144.42138105 43.41366038 -141.8125 42.5625 C-139.96748985 41.94860547 -138.12293325 41.3333463 -136.27880859 40.71679688 C-132.43638202 39.43478798 -128.59124447 38.16143946 -124.74365234 36.89501953 C-119.30804955 35.10479755 -113.88141228 33.28874046 -108.45703125 31.46484375 C-88.65024193 24.81314182 -68.79843953 18.30266091 -48.92382812 11.85668945 C-38.18859705 8.3737031 -27.46620375 4.85870891 -16.78271484 1.21923828 C-5.15131621 -2.71121906 -5.15131621 -2.71121906 0 0 Z M-22.25137329 21.62571716 C-23.339478 21.98608063 -24.4275827 22.34644409 -25.54866028 22.71772766 C-26.74254868 23.11823837 -27.93643707 23.51874908 -29.16650391 23.93139648 C-30.43611798 24.35379196 -31.70586101 24.77579996 -32.97572327 25.19744873 C-36.42524497 26.34415099 -39.87285607 27.49649999 -43.32010317 28.65001941 C-46.92349646 29.85491783 -50.52842807 31.05519706 -54.13314819 32.25611877 C-60.18518931 34.27317141 -66.23602328 36.29381192 -72.28613281 38.31665039 C-79.28914314 40.65804793 -86.29390772 42.99413356 -93.29966223 45.32730621 C-100.03087103 47.56914708 -106.76094314 49.81438061 -113.49045944 52.06129646 C-116.35851953 53.01886796 -119.2269557 53.97530062 -122.09569168 54.93084526 C-125.47005252 56.05500627 -128.84340449 57.18214352 -132.21598625 58.31163025 C-134.05079032 58.92532992 -135.88658301 59.53607136 -137.72239685 60.14674377 C-138.80486191 60.50992706 -139.88732697 60.87311035 -141.00259399 61.24729919 C-141.9490661 61.56347419 -142.89553822 61.87964918 -143.8706913 62.20540524 C-145.95298276 62.81456155 -145.95298276 62.81456155 -147 64 C-147.09504251 66.52541002 -147.12557158 69.02337126 -147.11352539 71.54907227 C-147.11367142 72.33925751 -147.11381744 73.12944275 -147.1139679 73.943573 C-147.11326857 76.56787822 -147.10547527 79.19211336 -147.09765625 81.81640625 C-147.09579214 83.63101665 -147.0943682 85.44562756 -147.09336853 87.26023865 C-147.08954279 92.0459023 -147.07971204 96.8315358 -147.06866455 101.6171875 C-147.05845163 106.49674064 -147.05387117 111.37629864 -147.04882812 116.25585938 C-147.03808982 125.83725286 -147.02101273 135.41862393 -147 145 C-139.69714531 143.52909044 -132.76112072 141.3939226 -125.703125 139.02514648 C-124.50372787 138.62656433 -123.30433075 138.22798218 -122.06858826 137.81732178 C-118.80537354 136.73269569 -115.54404857 135.64249152 -112.28310776 134.5510509 C-108.86393591 133.40753534 -105.4432106 132.26868423 -102.02270508 131.12916565 C-96.28899286 129.21822163 -90.55648207 127.30370899 -84.82470703 125.38696289 C-78.19307331 123.16933861 -71.55967332 120.95706505 -64.92529106 118.74767822 C-58.53685683 116.620095 -52.14955865 114.48912195 -45.76281738 112.35646248 C-43.04547552 111.44913175 -40.32775876 110.54293691 -37.60974121 109.63763237 C-33.82588867 108.37708989 -30.04371522 107.11156002 -26.26171875 105.84545898 C-24.56310951 105.28049461 -24.56310951 105.28049461 -22.83018494 104.70411682 C-21.29522118 104.18891983 -21.29522118 104.18891983 -19.72924805 103.66331482 C-18.83481491 103.36448615 -17.94038177 103.06565748 -17.0188446 102.7577734 C-15.03346176 102.17130295 -15.03346176 102.17130295 -14 101 C-13.90495749 98.47458998 -13.87442842 95.97662874 -13.88647461 93.45092773 C-13.88625557 92.26564987 -13.88625557 92.26564987 -13.8860321 91.056427 C-13.88673143 88.43212178 -13.89452473 85.80788664 -13.90234375 83.18359375 C-13.90420786 81.36898335 -13.9056318 79.55437244 -13.90663147 77.73976135 C-13.91045721 72.9540977 -13.92028796 68.1684642 -13.93133545 63.3828125 C-13.94154837 58.50325936 -13.94612883 53.62370136 -13.95117188 48.74414062 C-13.96191018 39.16274714 -13.97898727 29.58137607 -14 20 C-17.18742607 20 -19.23713508 20.62079317 -22.25137329 21.62571716 Z " fill="#000000" transform="translate(184,69)"/>
<path d="M0 0 C3.72934886 1.86467443 5.86585213 3.50927784 8.8125 6.375 C10.02873047 7.53128906 10.02873047 7.53128906 11.26953125 8.7109375 C13 11 13 11 12.7948761 12.93307495 C11.87652747 15.32106696 10.81901903 16.55534725 9.01245117 18.35986328 C8.07093452 19.31072311 8.07093452 19.31072311 7.11039734 20.28079224 C6.4281459 20.95383392 5.74589447 21.62687561 5.04296875 22.3203125 C4.34359695 23.0201828 3.64422516 23.7200531 2.92366028 24.44113159 C1.44350217 25.91894997 -0.04034828 27.39307802 -1.52758789 28.86376953 C-3.80203845 31.11464688 -6.06290177 33.37852148 -8.32226562 35.64453125 C-9.76223061 37.07891874 -11.20296076 38.51253857 -12.64453125 39.9453125 C-13.32070999 40.62240265 -13.99688873 41.2994928 -14.69355774 41.99710083 C-15.33069199 42.62470306 -15.96782623 43.2523053 -16.62426758 43.89892578 C-17.18084549 44.4508963 -17.7374234 45.00286682 -18.31086731 45.57156372 C-21.35344694 48.14455941 -23.29221035 49.01335452 -27.3125 48.9375 C-32.26045652 48.19063864 -36.9470162 46.43701104 -41.63208008 44.72827148 C-45.25697605 43.43679341 -48.16364601 42.63562297 -52 43 C-54.34917186 44.16131206 -54.34917186 44.16131206 -56.57421875 45.84375 C-57.40630859 46.43027344 -58.23839844 47.01679688 -59.09570312 47.62109375 C-60.37864258 48.55115234 -60.37864258 48.55115234 -61.6875 49.5 C-63.3969452 50.72266638 -65.10905418 51.94161983 -66.82421875 53.15625 C-67.57791748 53.70087891 -68.33161621 54.24550781 -69.1081543 54.80664062 C-71 56 -71 56 -73 56 C-74.62946228 53.69404616 -76.1435897 51.39803293 -77.625 49 C-78.04523438 48.33226562 -78.46546875 47.66453125 -78.8984375 46.9765625 C-79.93864592 45.32168546 -80.97014051 43.66133712 -82 42 C-77.58457261 37.07545625 -72.36999557 33.78045757 -66.8125 30.25 C-65.89791016 29.66089844 -64.98332031 29.07179687 -64.04101562 28.46484375 C-55.52967852 23 -55.52967852 23 -48 23 C-41.73 24.98 -35.46 26.96 -29 29 C-19.43 19.43 -9.86 9.86 0 0 Z " fill="#000000" transform="translate(138,120)"/>
</svg>
